<?xml version="1.0"?>
<svg xmlns:rdf="http://www.w3.org/1999/02/22-rdf-syntax-ns#" xmlns="http://www.w3.org/2000/svg" xmlns:cc="http://web.resource.org/cc/" xmlns:dc="http://purl.org/dc/elements/1.1/" xmlns:sodipodi="http://inkscape.sourceforge.net/DTD/sodipodi-0.dtd" xmlns:svg="http://www.w3.org/2000/svg" id="Layer_1" style="enable-background:new 0 0 180.415 270.776" xml:space="preserve" sodipodi:version="0.32" viewBox="0 0 180.415 270.776" version="1.0" sodipodi:docname="tazza caffe.svg" sodipodi:docbase="F:\openclip\svg3">
<sodipodi:namedview id="base" bordercolor="#666666" borderopacity="1.0" pagecolor="#ffffff"/>
<g id="g3">
	<path id="path5" d="m179.83 63.498c-1.832-2.623-3.843-6.572-7.589-6.294 3.055 1.604 3.835 4.083 4.628 7.22 1.257 4.971 0.892 6.435-1.974 10.737-4.952 7.434-16.41 4.059-23.221 2.356-15.399-3.849-32.079-0.571-38.803 15.58-3.335 8.009 10.667 13.723 15.401 16.386 5.785 3.254 11.86 8.366 10.645 15.846-1.288 7.924-13.103 11.454-19.993 12.772-8.428 1.613-18.184 0.489-25.896 4.34-6.466 3.229-12.737 8.898-13.72 16.396-1.123 8.568 5.417 15.267 11.107 20.731-14.107 0.523-28.149 2.184-41.855 5.604-14.717 3.674-20.583 12.611-19.051 27.719-9.896-5.418-24.44-3.124-28.417 8.794-5.599 16.784 11.404 28.901 26.937 29.897 1.108-4.529-8.296-4.592-11.663-6.479-4.359-2.442-11.929-8.962-12.404-14.442-0.491-5.676 4.452-12.645 9.441-14.623 5.323-2.111 16.9-1.769 18.883 4.814-5.256-0.568-12.432-2.447-16.846 1.294-3.918 3.321-5.01 9.619-3.055 14.163 1.536 3.57 6.698 6.903 10.274 8.236 1.513 0.564 2.993 0.741 4.628 0.741 0.538 0 1.123-4.443-0.37-4.443-1.489 0-2.979-0.241-4.351-0.831-13.876-5.967-2.393-21.187 9.627-11.85 1.924 1.494 10.94 10.222 4.628 11.479-1.756 0.351-3.523 0.657-5.277 1.018-4.004 0.824-3.887-0.516-3.887 4.628 7.331-0.836 18.91-6.01 20.179 5.369-6.524-1.232-13.379-1.807-19.995-2.221-0.925 3.963 1.932 3.146 4.629 3.146 2.813 0 5.748 0.185 8.608 0.185 9.494 0 12.085 10.585 20.079 13.679 15.192 5.881 33.964 5.944 49.99 4.649 9.157-0.739 17.842-1.825 25.464-7.224 7.382-5.229 12.22-12.482 16.513-20.305 3.828-6.976 4.447-15.416 8.376-22.087 3.538-6.009 6.744-12.504 5.277-19.9-0.871-4.394-6.843-7.954-10.357-9.553-8.181-3.719-16.241-6.034-25.096-7.51-7.939-1.323-16.04-1.683-24.056-2.315-4.02-0.317-8.104-0.893-12.134-0.893-2.41 0-6.912-5.97-8.423-7.961-13.649-17.989 13.361-27.275 27.054-28.613 8.709-0.851 18.623-1.191 26.634-5.078 6.619-3.211 16.09-11.616 12.727-20.017-4.11-10.265-14.891-13.833-23.062-20.189-8.002-6.225-0.52-12.111 6.843-13.949 13.59-3.413 48.44 4.377 42.93-21.024"/>
	<path id="path7" fill="#6584FF" d="m19.511 242.7c-6.253-3.22-9.98-8.992-7.035-15.921 3.687-8.672 12.015-6.764 19.809-5.922-1.936-6.429-12.666-6.678-17.958-5.092-5.57 1.669-9.714 7.554-9.996 13.422-0.52 10.841 14.245 18.261 23.509 19.253 1.041-4.19-5.508-3.35-8.329-5.74"/>
	<path id="path9" fill="#6584FF" d="m27.657 245.1c-1.111 4.949 4.942 3.839 8.331 4.07 3.962 0.271 7.953 0.746 11.849 1.482-1.347-12.07-13.146-5.23-20.18-5.55"/>
	<path id="path11" fill="#561E05" d="m97.634 190.12c-16.445 0-35.271 0.018-49.863 8.597-9.333 5.487 6.955 14.231 11.515 15.371 8.5 2.123 17.065 2.549 25.785 2.763 17.023 0.416 34.41 0.424 51.254-2.478 4.157-0.716 24.169-4.761 16.104-11.665-6.044-5.174-15.658-7.418-23.365-8.771-5.043-0.884-10.204-2.088-15.304-2.553-4.98-0.45-11.58-0.08-16.126-1.26"/>
	<path id="path13" fill="#6584FF" d="m65.608 263.06c-15.787-4.853-12.366-20.256-17.634-32.76-1.97-4.677-2.415-4.634-6.896-4.634-3.659 0-5.201-3.448-6.109-6.479-1.085-3.623-2.641-7.867-2.684-11.664 21.385 10.692 43.521 13.728 67.308 12.905 19.332-0.668 51.351 1.925 63.759-16.422 0.177 3.985-0.744 7.767-2.128 11.479-1.683 4.514-5.986 5.701-10.407 7.039-10.229 3.096-20.461 4.889-31.152 5.362-10.851 0.48-21.709-0.21-32.547-0.682-8.748-0.38-17.595-2.604-26.323-1.908 1.41 4.887 9.607 5.581 13.538 5.999 9.239 0.983 18.361 1.554 27.652 1.746 18.328 0.381 36.492-2.799 53.963-8.116-2.846 9.136-7.133 17.948-12.279 25.992-5.946 9.295-11.189 13.205-21.969 15.106-16.26 2.85-40.993 4.45-56.082-2.98"/>
	<path id="path15" fill="#6584FF" d="m41.542 227.7c-0.416-1.028-6.409-14.579-2.756-13.973 5.326 0.885 10.097 6.729 13.679 10.455 1.447 1.505 12.605 12.225 11.847 14.07-0.687 1.672-4.682 0.666-6.109 1.665 2.039 3.937 6.774 4.424 10.552 5.739-1.751 0.96-7.426 0.646-7.96 3.148-0.627 2.941 6.261 6.559 7.96 7.96-3.056 3.565-4.108 6.606-8.793 3.384-3.492-2.402-6.053-5.122-7.96-8.938-3.849-7.69-6.493-15.86-10.46-23.51"/>
	<path id="path17" fill="#927602" d="m65.608 211.6c2.362-0.11 3.86-2.198 1.018-3.334-2.326-0.931-4.842-0.535-7.127-1.668 1.368-1.815 8.153-1.451 7.59-4.44-0.562-2.979-8.979-1.367-11.108-3.148 2.65-4.412 10.796-5.414 15.387-6.334 7.952-1.595 16.711-1.108 24.601 0.597-8.446-0.839-17.384 0.687-24.991 4.443 1.877 4.604 14.126 3.042 17.401 3.146-2.03 0.153-14.12 2.092-14.625 4.443-0.859 4.003 9.396 2.506 11.107 3.146-3.296 0.457-6.526 1.574-4.998 5.739-4.264-0.47-10.735 0.22-14.255-2.6"/>
	<path id="path19" fill="#2413FF" d="m33.766 202.16c-2.908-13.07 13.286-13.941 22.401-15.736 6.678-1.314 13.395-2.386 20.178-3.146 3.789-0.425 7.54-0.816 11.355-0.604 4.668 0.26 5.159 0.914 8.269 4.49-11.873 0-23.388 1.299-35.082 3.332-4.813 0.837-11.419 1.333-15.088 5-4.952 4.95-2.28 8.921 0 14.624-5.377-0.13-9.548-3.32-12.033-7.95"/>
	<path id="path21" fill="#2413FF" d="m100.78 187.53c-1.296-1.543-2.591-3.086-3.887-4.629 11.573 1.154 23.638 0.261 35.07 2.687 6.458 1.371 28.356 5.112 28.983 13.976 0.083 1.177-0.563 3.232-1.667 3.886-2.421 1.432-3.78-1.728-6.108-3.194-5.135-3.233-10.432-5.797-16.36-7.28-11.86-2.99-23.91-3.95-36.02-5.46"/>
	<path id="path23" d="m69.681 165.68c-5.523-5.675-14.686-7.264-19.363-13.814-5.366-7.517-1.824-14.843 5.828-18.663 2.963-1.479 6.7-1.996 9.462-3.806 2.953-1.935 6.171-5.817 8.439-8.538 6.653-7.978 4.654-13.44-1.776-20.527-5.174-5.704-11.825-12.563-13.259-20.444-1.063-5.837-0.726-7.626 2.733-12.445 2.281-3.178 5.683-6.186 9.277-7.803 15.846-7.132 36.214-5.432 50.214-16.234 8.1-6.249 11.431-13.872 7.174-23.452-2.36-5.311-12.93-14.152-11.71-19.952 5.663 5.958 10.989 12.362 14.626 19.808 2.803 5.739 6.797 16.948 4.073 23.326-6.69 15.664-31.817 15.571-45.273 19.415-8.969 2.562-16.792 5.961-22.575 13.538-2.068 2.709-5.243 8.424-1.48 11.483 6.244 5.077 14.065 8.812 18.697 15.545 4.36 6.339 1.356 16.69-4.166 21.476-6.877 5.959-24.076 8-24.455 19.274-0.377 11.223 14.193 16.063 18.346 26.266-3.374 0.81-2.623-3.09-4.813-4.46"/>
	<path id="path25" fill="#BDBDBD" d="m93.748 144.95c6.914-1.894 13.188-2.776 20.363-2.776-11.896 1.142-24.187 4.117-31.101 14.624 1.274-5.63 6.324-8.74 10.739-11.84"/>
	<path id="path27" fill="#BDBDBD" d="m50.613 147.54c0-6.65 0.767-8.347 6.664-12.033-3.818 6.07-6.703 13.976 0.371 19.067-2.863-1.79-5.377-4.07-7.035-7.04"/>
	<path id="path29" fill="#BDBDBD" d="m120.4 141.25c7.477-3.445 20.253-4.11 21.198-14.533 1.257-13.864-10.13-16.318-19.414-22.739-11.204-7.749-3.229-19.693 7.179-23.367 11.782-4.16 21.763-1.009 33.617 1.584-10.549 2.017-21.453-1.383-31.662 2.915-5.532 2.329-7.934 7.4-5.178 12.821 2.685 5.281 8.475 6.528 13.124 9.317 7.29 4.374 18.49 15.92 8.869 24.167-8.16 6.99-17.2 9.28-27.74 9.83"/>
	<path id="path31" fill="#BDBDBD" d="m70.977 127.55c4.436-3.787 10.625-10.578 10.133-16.916-0.517-6.666-5.819-11.645-10.503-16.037 7.152 4.069 14.199 8.85 13.562 17.84-0.511 7.21-6.775 12.93-13.192 15.12"/>
	<path id="path33" fill="#BDBDBD" d="m62.09 70.162c10.941-10.608 22.877-12.972 37.395-16.106 14.998-3.238 25.366-7.823 32.768-21.66 4.766 5.513-0.218 11.843-4.43 15.333-6.768 5.608-15.647 7.713-24.073 9.399-8.448 1.69-16.577 3.474-24.672 6.436-8.341 3.051-13.064 10.126-17.356 17.335-1.428-3.696-1.475-7.188 0.368-10.737"/>
	<path id="path35" fill="#582105" d="m154.28 205.86c-1.676-7.698-17.015-9.76-23.303-11.333-7.928-1.982-16.503-3.018-24.646-3.663-16.552-1.313-35.288-1.093-51.001 4.802-2.912 1.092-8.548 2.879-8.888 6.585-0.375 4.095 4.435 7.893 7.683 9.534 7.329 3.704 16.367 4.351 24.428 4.772 17 0.89 34.58 0.854 51.471-1.493 5.78-0.81 23.19-1.67 24.26-9.21"/>
	<path id="path37" fill="#582105" d="m154.1 205.86c-1.628-7.536-16.717-9.803-22.929-11.185-8.063-1.794-16.536-3.258-24.804-3.642-16.811-0.782-35.229-0.989-51.14 5.23-3.121 1.22-7.932 2.996-7.758 7.005 0.153 3.526 5.232 7.306 8.032 8.523 8.068 3.51 16.587 4.203 25.298 4.659 17.188 0.899 34.625 0.482 51.673-1.886 5.5-0.77 20.32-1.72 21.62-8.71"/>
	<path id="path39" fill="#5A2205" d="m153.91 205.86c-1.681-7.719-17.15-9.754-23.4-11.185-8.47-1.938-17.108-2.825-25.768-3.431-16.725-1.17-34.86-0.386-50.532 6.024-10.576 4.327-2.659 12.6 4.528 15.409 7.873 3.077 16.667 3.263 25.001 3.714 17.402 0.942 35.606 0.511 52.77-2.572 4.83-0.87 16.25-1.83 17.4-7.96"/>
	<path id="path41" fill="#5A2405" d="m153.73 205.86c-1.57-7.562-16.944-9.607-23.03-10.999-8.565-1.958-17.353-2.984-26.126-3.401-15.822-0.751-36.222-1.532-50.533 6.516-9.676 5.441 0.7 13.435 7.646 15.238 8.085 2.1 16.264 2.838 24.607 3.051 18.137 0.464 36.867 0.608 54.656-3.402 3.81-0.87 12.41-2.5 12.78-7.01"/>
	<path id="path43" fill="#5A2605" d="m153.54 205.67c-1.887-7.296-16.74-9.417-22.846-10.813-8.139-1.86-16.699-2.802-25.029-3.188-15.761-0.73-37.568-1.768-51.538 6.969-9.128 5.708 3.912 13.537 9.72 14.829 8.092 1.799 16.245 2.425 24.521 2.645 17.577 0.466 35.269 0.045 52.578-3.301 3.85-0.75 12.12-2.6 12.6-7.15"/>
	<path id="path45" fill="#5B2805" d="m153.36 205.67c-1.863-7.207-16.479-9.214-22.49-10.626-8.25-1.938-16.92-2.816-25.372-3.219-9.047-0.431-18.292-0.399-27.3 0.701-6.914 0.845-19.301 1.869-24.437 7.22-7.078 7.373 8.541 12.951 13.57 14.305 8.06 2.17 17.367 1.762 25.647 1.976 16.65 0.431 34.736 0.375 50.903-4.148 3.34-0.92 9.06-2.25 9.48-6.2"/>
	<path id="path47" fill="#5C2905" d="m153.17 205.67c-1.02-6.974-16.653-9.156-22.117-10.442-8.168-1.922-16.745-2.807-25.113-3.217-16.278-0.798-36.028-0.73-50.605 7.475-10.036 5.649 9.316 13.41 12.921 14.38 8.004 2.153 17.066 1.943 25.287 2.161 16.785 0.445 35.578 0.506 51.708-4.651 2.79-0.89 7.96-2.29 7.92-5.7"/>
	<path id="path49" fill="#5D2A05" d="m152.98 205.67c-0.897-6.883-16.946-9.223-22.213-10.367-8.542-1.855-17.178-2.576-25.893-3-8.537-0.415-17.018-0.362-25.497 0.849-7.906 1.13-18.971 1.851-24.635 8.15-5.907 6.571 13.544 12.274 16.823 12.84 8.502 1.466 17.214 1.709 25.831 1.709 16.842 0 36.599 0.737 52.287-6.247 1.77-0.78 3.33-2.24 3.29-3.93"/>
	<path id="path51" fill="#5F2C05" d="m152.8 205.67c-0.904-6.778-16.647-9.127-21.846-10.183-8.49-1.724-16.946-2.57-25.593-3.001-8.359-0.415-16.934-0.369-25.227 0.85-7.668 1.127-18.769 1.847-24.278 7.966-6.357 7.062 14.766 12.332 18.107 12.929 8.354 1.492 17.104 1.437 25.568 1.437 8.433 0 16.858-0.047 25.253-0.98 7.565-0.842 18.759-0.923 25.239-5.499 1.45-1.03 2.75-1.98 2.78-3.53"/>
	<path id="path53" fill="#5F2E05" d="m152.8 205.67c-1.74-7.035-15.891-8.806-21.659-9.996-8.391-1.73-16.749-2.562-25.298-3.001-13.629-0.701-38.375-1.824-48.876 8.677-6.612 6.612 14.84 12.177 17.857 12.697 8.305 1.43 16.929 1.436 25.336 1.436 8.314 0 16.52-0.274 24.809-0.967 7.372-0.616 18.811-0.732 25.055-5.328 1.39-1.02 2.32-1.82 2.78-3.52"/>
	<path id="path55" fill="#612E05" d="m152.62 205.67c-1.683-6.801-15.688-8.615-21.29-9.811-8.7-1.856-17.608-2.628-26.485-3.075-7.631-0.385-47.493-0.958-47.564 11.033-0.081 13.585 38.183 11.48 46.097 11.48 8.772 0 17.553-0.293 26.273-1.29 5.412-0.619 20.222-1.478 22.6-7.412 0.13-0.3 0.25-0.61 0.38-0.92"/>
	<path id="path57" fill="#613104" d="m152.43 205.67c-1.664-6.726-14.972-8.468-20.496-9.715-8.158-1.841-16.829-2.484-25.166-2.912-7.821-0.4-48.312-1.257-48.383 10.774-0.079 13.215 38.263 11.669 45.942 11.47 8.923-0.23 17.833-0.587 26.703-1.602 5.71-0.65 19.22-1.52 21.41-8.02"/>
	<path id="path59" fill="#623204" d="m152.24 205.49c-2.215-6.614-14.565-8.05-20.308-9.345-8.453-1.905-17.378-2.616-26.021-2.836-5.048-0.128-50.903 1.538-46.081 11.187 6.494 12.992 32.958 10.922 45.05 10.61 8.936-0.229 17.746-0.557 26.627-1.653 5.53-0.68 19.01-1.29 20.73-7.96"/>
	<path id="path61" fill="#623304" d="m152.06 205.49c-1.379-6.251-15.19-8.199-20.362-9.256-8.653-1.768-17.468-2.294-26.27-2.757-5.019-0.264-49.024 1.934-44.484 11.019 6.522 13.049 33.346 10.718 45.489 10.399 8.432-0.222 16.884-0.383 25.265-1.442 4.8-0.61 19.5-1.79 20.36-7.96"/>
	<path id="path63" fill="#633504" d="m151.88 205.49c-1.413-6.338-14.794-7.987-19.994-9.071-8.205-1.71-16.579-2.249-24.93-2.703-7.24-0.395-45.125-0.851-45.231 10.294-0.119 12.558 36.616 10.737 43.873 10.737 7.8-0.01 44.67 1.29 46.28-9.26"/>
	<path id="path65" fill="#643703" d="m151.69 205.49c-1.357-6.138-14.597-7.894-19.623-8.885-8.445-1.665-16.953-2.293-25.538-2.758-6.818-0.369-43.572-0.532-43.699 10.162-0.147 12.424 36.16 10.553 43.32 10.553 8.524 0 17.017-0.369 25.479-1.428 4.86-0.6 18.82-1.47 20.06-7.63"/>
	<path id="path67" fill="#653903" d="m151.51 205.49c-1.39-6.265-14.547-7.816-19.693-8.781-8.271-1.552-16.508-2.274-24.915-2.501-6.883-0.185-42.673-0.932-42.958 9.802-0.316 11.891 35.934 10.731 42.958 10.543 7.84-0.21 42.51 1.28 44.61-9.06"/>
	<path id="path69" fill="#653B03" d="m151.32 205.49c-1.209-6.056-13.997-7.536-18.882-8.515-8.231-1.649-16.485-2.347-24.868-2.579-6.498-0.18-42.692-0.62-42.516 9.8 0.196 11.591 34.992 10.177 42.023 10.182 8.344 0.006 16.625-0.66 24.923-1.441 4.77-0.46 17.99-1.77 19.32-7.45"/>
	<path id="path71" fill="#663A03" d="m151.13 205.49c-1.303-5.828-14-7.787-18.937-8.583-8.146-1.314-16.313-2.109-24.566-2.34-4.664-0.131-44.922 1.346-41.229 10.205 4.751 11.396 31.675 9.685 41.722 9.405 7.31-0.21 41.57 1 43.02-8.69"/>
	<path id="path73" fill="#673C03" d="m150.95 205.3c-1.623-5.62-13.625-7.417-18.567-8.214-7.901-1.275-15.731-1.854-23.717-2.312-4.746-0.271-44.725 1.419-41.151 9.992 4.825 11.572 31.159 9.233 41.151 9.233 6.91 0 41.32 0.87 42.29-8.7"/>
	<path id="path75" fill="#693F02" d="m150.77 205.3c-1.564-5.589-13.527-7.224-18.37-8.03-7.68-1.279-15.408-1.909-23.188-2.138-4.564-0.134-44.21 0.935-40.583 9.635 4.75 11.396 30.796 9.049 40.597 9.049 7.08 0.01 40.21 1 41.55-8.51"/>
	<path id="path77" fill="#694001" d="m150.58 205.3c-0.919-5.483-13.721-7.107-18.146-7.871-7.629-1.315-15.396-2.012-23.139-2.126-6.326-0.094-39.673-0.791-39.802 9.071-0.141 10.701 33.625 9.257 39.802 9.257 6.81 0 40.5 0.91 41.29-8.33"/>
	<path id="path79" fill="#694201" d="m150.39 205.3c-1.692-9.747-33.289-9.702-40.726-9.813-6.349-0.094-38.77-0.491-39.061 8.887-0.316 10.2 33.047 9.252 39.061 9.257 6.68 0 40.11 0.6 40.73-8.34"/>
	<path id="path81" fill="#6A4301" d="m150.21 205.3c-1.533-9.373-32.842-9.631-39.986-9.626-4.742 0.004-41.601 0.97-38.135 9.626 3.923 9.8 30.219 8.383 38.601 8.134 6.44-0.19 38.97 0.59 39.52-8.13"/>
	<path id="path83" fill="#6B4600" d="m150.21 205.3c-1.48-5.268-12.195-6.374-16.66-7.221-7.391-1.401-14.812-1.795-22.317-2.021-5.861-0.177-38.556-0.644-38.403 8.501 0.161 9.588 31.997 8.791 37.951 8.701 7.41-0.11 36.82 1.37 39.43-7.96"/>
	<path id="path85" fill="#6C4700" d="m150.02 205.3c-2.576-9.655-30.659-8.821-38.253-9.058-6.642-0.207-35.682-1.065-37.834 7.576-2.364 9.492 32.242 9.256 37.396 9.256 7.63 0 35.61 1.57 38.69-7.78"/>
	<path id="path87" fill="#6C4800" d="m149.84 205.12c-4.788-9.435-28.638-8.409-37.514-8.688-6.702-0.211-34.827-1.081-37.277 7.485-2.636 9.216 32.637 8.978 37.277 8.978 7.06-0.01 35.32 1.25 37.51-7.78"/>
	<path id="path89" fill="#6E4800" d="m149.66 205.12c-4.702-9.145-28.485-8.509-37.213-8.516-5.305-0.005-36.404-0.266-36.469 7.959-0.071 8.992 30.982 8.336 36.469 8.331 6.83 0 35.11 0.94 37.21-7.77"/>
	<path id="path91" fill="#6F4A00" d="m149.47 205.12c-4.585-12.449-72.941-10.89-72.381-0.371 0.461 8.67 30.712 8.121 36.153 7.947 6.96-0.23 33.76 1.08 36.23-7.58"/>
	<path id="path93" fill="#704B00" d="m149.28 205.12c-3.285-8.9-27.916-7.705-35.489-7.947-6.276-0.201-33.134-1.039-35.412 6.928-2.313 8.089 30.646 8.431 34.987 8.426 7.17-0.01 33.18 1.23 35.92-7.41"/>
	<path id="path95" fill="#714C00" d="m149.1 205.12c-4.229-11.361-69.509-11.277-69.792-0.371-0.267 10.28 66.102 11.98 69.792 0.37"/>
	<path id="path97" fill="#704D00" d="m148.92 205.12c-2.966-8.33-26.831-7.336-33.856-7.57-6.104-0.204-31.935-0.906-34.455 6.644-2.452 7.343 29.365 7.96 33.301 7.96 7.09 0 31.99 1.4 35.01-7.03"/>
	<path id="path99" fill="#724E00" d="m148.73 205.12c-3.948-11.049-67.022-10.378-67.203-0.186-0.175 9.9 65.303 10.97 67.203 0.19"/>
	<path id="path101" fill="#724F00" d="m148.54 204.93c-3.692-7.987-25.699-6.851-32.95-6.851-3.784 0-34.97 0.808-32.767 7.406 2.502 7.493 26.691 6.484 32.767 6.479 5.67-0.01 32.06 0.59 32.95-7.04"/>
	<path id="path103" fill="#735000" d="m148.36 204.93c-4.098-10.079-64.316-9.628-64.608 0-0.276 9 63.598 10.83 64.608 0"/>
	<path id="path105" fill="#745100" d="m116.52 211.6c-4.609-0.166-31.396 0.397-31.656-6.48-0.252-6.658 27.787-6.805 32.195-6.646 4.181 0.15 31.536-0.1 31.302 6.646-0.24 6.9-27.43 6.32-31.84 6.48"/>
	<path id="path107" fill="#6584FF" d="m98.375 263.99c-14.873 0-35.416-2.777-45.263-15.456-3.363-4.33-11.652-15.972-3.055-17.867 7.754-1.71 17.818 1.49 25.465 2.882 17.232 3.135 33.405 3.005 50.845 1.804 4.854-0.335 21.425-2.464 21.991 4.571 0.49 6.095-9.853 15.294-14.439 17.587-9.75 4.88-24.74 8.21-35.545 6.49"/>
	<path id="path109" fill="#6585FF" d="m98.375 263.99c-14.741-0.397-35.069-2.826-44.893-15.456-3.335-4.288-11.558-15.712-3.054-17.68 7.625-1.764 17.754 1.511 25.28 2.88 17.742 3.228 34.165 2.249 52.063 1.627 4.216-0.146 21.716-1.94 19.848 5.489-1.646 6.552-8.166 13.604-13.977 16.66-10.66 5.6-23.47 6.21-35.265 6.48"/>
	<path id="path111" fill="#6587FF" d="m98.375 263.8c-14.751-0.406-36.688-2.768-45.506-16.633-3.18-5-10.979-16.318-0.127-16.318 8.238 0 15.959 1.95 24.042 3.215 17.701 2.77 34.272 2.503 52.133 1.266 5.259-0.365 19.961-1.822 18.146 6.44-1.504 6.852-9.296 13.183-15.002 16.188-10.1 5.31-22.58 5.6-33.695 5.84"/>
	<path id="path113" fill="#6588FF" d="m98.375 263.62c-15.207-0.424-34.914-2.767-44.8-15.921-2.882-3.834-11.125-16.245-1.799-16.69 8.302-0.396 16.625 1.466 24.754 2.99 17.685 3.316 34.185 2.14 52.036 1.501 5.196-0.187 19.794-1.897 18.125 6.273-1.371 6.714-9.581 13.876-15.364 16.478-9.06 4.07-23.2 6.96-32.965 5.37"/>
	<path id="path115" fill="#6689FF" d="m98.375 263.62c-14.563-0.405-36.097-2.821-44.765-16.449-3.345-5.259-10.801-15.533-0.127-16.041 8.243-0.391 16.496 2.03 24.583 3.295 17.438 2.726 33.778 1.899 51.355 1.222 5.873-0.227 20.496-1.792 16.159 7.794-2.89 6.388-8.638 12.251-15.075 14.886-10.22 4.19-21.18 5.04-32.125 5.3"/>
	<path id="path117" fill="#678AFF" d="m98.375 263.43c-14.948-0.416-34.37-2.844-44.059-15.735-2.627-3.495-11.21-16.477-1.83-16.477 8.211 0 16.172 1.56 24.229 2.962 17.572 3.06 33.751 2.136 51.479 1.501 4.986-0.179 19.381-1.822 17.758 6.088-1.346 6.561-9.553 13.69-15.181 16.292-10.01 4.63-21.59 5.08-32.395 5.37"/>
	<path id="path119" fill="#668CFF" d="m98.375 263.25c-14.816-0.427-34.75-2.77-44.025-16.029-3.546-5.069-10.623-15.39-0.22-15.905 7.714-0.383 15.668 1.718 23.209 3.135 17.247 3.241 33.613 2.047 51.027 1.402 4.572-0.169 20.988-1.791 16.66 6.849-3.293 6.572-7.956 12.826-15.076 15.412-9.49 3.44-21.67 6.53-31.575 5.13"/>
	<path id="path121" fill="#678EFF" d="m98.375 263.06c-15.601 0-35.263-3.238-44.616-17.214-4.344-6.491-8.358-14.435 2.593-14.442 8.576-0.007 17.655 2.363 26.047 3.992 16.661 3.232 33.14 0.453 49.927 0.453 8.051 0 16.45 0.602 10.572 9.995-4.145 6.624-9.325 11.396-17.032 13.647-8.37 2.45-19.03 4.78-27.495 3.57"/>
	<path id="path123" fill="#678FFF" d="m98.375 263.06c-15.352-0.435-34.454-3.237-43.909-16.734-1.979-2.825-3.496-5.705-4.586-8.977-1.795-5.39 1.903-5.512 6.264-5.731 7.903-0.398 16.291 1.998 23.997 3.49 16.503 3.195 32.704 1.495 49.363 0.86 6.227-0.237 19.162-1.095 13.948 8.304-3.999 7.208-8.961 11.724-16.7 14.669-8.93 3.4-18.94 3.86-28.375 4.12"/>
	<path id="path125" fill="#6790FF" d="m98.375 262.88c-15.348-0.438-34.734-3.043-43.875-17.03-1.672-2.56-3.981-5.972-4.443-9.073-0.773-5.192 2.592-4.995 7.036-4.998 8.621-0.005 17.205 2.453 25.677 3.82 16.708 2.695 32.727 0.078 49.482 0.438 8.614 0.185 15.577 1.239 9.441 10.552-4.455 6.762-9.606 10.745-17.485 13.044-8.53 2.49-16.98 2.99-25.825 3.25"/>
	<path id="path127" fill="#6791FF" d="m98.375 262.69c-15.188-0.447-33.93-2.908-43.354-16.366-4.455-6.361-8.297-14.566 2.441-14.551 8.336 0.013 17.173 2.361 25.322 3.992 15.994 3.2 32.644 0.93 48.803 0.285 7.899-0.315 15.7 1.005 10.201 9.792-4.128 6.597-9.002 11.047-16.661 13.279-8.18 2.4-18.48 4.79-26.755 3.58"/>
	<path id="path129" fill="#6893FF" d="m98.375 262.69c-14.831-0.438-34.586-3.079-43.319-16.846-1.554-2.449-3.872-5.96-4.257-8.888-0.63-4.794 2.503-4.975 6.85-4.997 8.466-0.044 17.019 2.436 25.32 3.819 16.454 2.743 32.228 0.059 48.73 0.437 8.553 0.196 15.076 1.288 9.255 10.367-4.248 6.626-9.462 10.63-17.113 12.86-8.29 2.42-16.9 3.01-25.475 3.25"/>
	<path id="path131" fill="#6894FF" d="m98.375 262.51c-14.768-0.436-34.239-2.93-42.949-16.66-4.316-6.804-7.659-14.146 3.257-13.672 8.57 0.371 16.798 2.77 25.254 3.936 17.31 2.386 34.229-1.238 51.463 0.293 10.309 0.916 8.29 5.845 3.333 12.772-4.81 6.722-11.719 9.482-19.652 11.314-6.84 1.58-13.72 1.81-20.705 2.02"/>
	<path id="path133" fill="#6895FF" d="m98.375 262.32c-14.819-0.437-33.778-2.891-42.578-16.475-3.981-6.146-7.716-13.683 2.59-13.701 8.288-0.016 17.034 2.484 25.178 3.888 17.111 2.949 33.839-0.263 51.013 0.528 10.514 0.484 8.927 5.72 3.782 12.614-4.959 6.645-11.517 9.294-19.465 11.13-6.27 1.45-14.38 2.96-20.525 2.02"/>
	<path id="path135" fill="#6996FF" d="m98.375 262.14c-14.953 0-33.881-3.199-42.543-16.817-1.446-2.273-4.795-7.022-4.108-9.84 0.937-3.84 5.752-3.26 9.163-2.963 8.34 0.727 16.415 2.78 24.688 3.963 17.309 2.476 34.48-1.522 51.738 0.385 9.369 1.036 3.314 9.24-0.262 13.719-5.164 6.467-13.563 8.931-21.459 10.258-5.36 0.9-12.09 2.08-17.215 1.3"/>
	<path id="path137" fill="#6A97FF" d="m98.375 262.14c-14.924-0.451-33.472-3.115-42.174-16.817-1.394-2.194-4.658-7.141-4.106-9.84 0.77-3.765 5.899-3.066 9.07-2.777 8.762 0.798 17.399 2.622 26.064 4.116 16.558 2.855 34.4-3.634 50.578 0.326 8.547 2.092 1.714 9.892-1.839 14.329-4.689 5.856-13.979 8.426-21.101 9.444-5.5 0.78-10.95 1.05-16.495 1.22"/>
	<path id="path139" fill="#6B99FF" d="m98.189 261.95c-15.681-0.491-33.232-3.448-42.243-17.614-1.306-2.054-4.633-7.496-3.297-9.972 1.516-2.809 8.359-1.739 10.923-1.479 8.589 0.875 16.983 3.153 25.547 4.257 16.194 2.087 34.557-3.934 50.236 0.549 6.254 1.788-1.779 12.285-4.483 14.74-6.6 5.992-15.77 7.668-24.295 8.886-4.15 0.58-8.21 0.62-12.391 0.62"/>
	<path id="path141" fill="#6B9AFF" d="m98.189 261.76c-14.568 0-32.836-3.223-41.248-16.447-1.352-2.125-4.648-6.847-4.107-9.469 0.883-4.285 6.964-3.139 10.442-2.836 8.481 0.737 16.957 2.67 25.323 4.219 16.221 3.005 33.059-3.207 49.139 0.241 7.675 1.646 0.431 11.053-2.709 14.479-5.273 5.754-14.26 7.724-21.633 8.777-4.87 0.7-10.42 1.73-15.211 1.04"/>
	<path id="path143" fill="#6C9BFF" d="m98.189 261.76c-15.811-0.493-31.973-3.676-41.501-17.29-1.551-2.217-3.782-6.547-3.39-9.274 0.507-3.535 8.493-2.19 10.829-1.944 8.458 0.891 16.741 2.987 25.177 4.072 15.903 2.045 33.915-3.854 49.312 0.548 6.242 1.785-1.916 11.852-4.437 14.372-5.736 5.736-14.74 7.592-22.501 8.7-4.46 0.63-9 0.7-13.491 0.81"/>
	<path id="path145" fill="#6D9CFF" d="m98.189 261.58c-15.724-0.509-33.098-3.546-41.619-18.162-1.438-2.466-4.347-7.078-1.886-9.606 2.241-2.303 10.015-0.523 12.812-0.076 8.3 1.328 16.581 3.176 24.927 4.138 7.839 0.903 15.99 0.23 23.834-0.398 4.651-0.372 20.637-3.02 23.77 1.335 2.662 3.7-5.209 13.278-8.262 15.241-7.01 4.508-15.612 6.554-23.867 7.104-3.24 0.23-6.47 0.36-9.711 0.44"/>
	<path id="path147" fill="#6D9DFF" d="m98.189 261.4c-16.047-0.519-32.155-3.633-41.248-17.929-1.225-1.925-4.319-7.03-2.255-9.099 2.625-2.632 9.163-1.054 12.403-0.648 8.509 1.063 16.871 3.132 25.4 4.154 7.859 0.942 15.726-0.063 23.584-0.379 4.651-0.187 20.534-2.959 23.585 1.499 2.612 3.816-5.167 12.765-8.214 14.874-6.532 4.521-14.516 6.221-22.335 7.029-3.52 0.37-7.52 1.01-10.931 0.51"/>
	<path id="path149" fill="#6E9EFF" d="m98.189 261.21c-16.718 0-32.243-4.163-41.501-18.725-6.958-10.943 5.59-9.42 12.807-8.303 8.219 1.272 16.312 3.392 24.624 4.072 6.866 0.563 44.996-5.428 45.725 2.964 0.47 5.413-8.752 12.986-12.746 14.979-7.106 3.545-15.552 4.772-23.408 5.026-1.8 0.06-3.818 0.24-5.491-0.01"/>
	<path id="path151" fill="#6FA0FF" d="m98.189 261.21c-15.829-0.509-32.859-3.812-40.995-18.725-5.498-10.077 2.94-9.737 11.107-8.38 8.054 1.339 16.079 2.982 24.187 3.954 8.109 0.972 16.25-0.1 24.36-0.425 4.229-0.169 20.659-2.816 22.625 2.472 1.539 4.139-7.362 13.136-10.369 14.996-7.023 4.345-16.396 5.33-24.434 5.885-2.16 0.16-4.33 0.17-6.491 0.23"/>
	<path id="path153" fill="#70A1FF" d="m98.189 261.02c-15.733-0.525-33.375-3.582-40.912-19.068-1.561-3.207-3.646-6.813 0.672-8.139 3.511-1.077 9.069-0.037 12.603 0.644 8.426 1.622 17.009 3.68 25.601 4.071 8.036 0.366 16.179-0.712 24.206-1.048 4.836-0.202 19.646-2.376 18.374 5.212-1.075 6.415-9.242 12.252-14.626 14.348-7.655 2.979-16.27 3.98-24.43 3.98-0.489 0.01-0.985 0.01-1.481 0.01"/>
	<path id="path155" fill="#70A2FF" d="m98.189 260.84c-15.844 0-33.876-4.021-41.004-19.715-4.733-10.42 8.261-7.567 14.864-6.246 8.361 1.672 16.978 3.329 25.504 3.718 8.47 0.387 17.057-0.685 25.519-1.053 5.368-0.234 17.753-1.75 14.551 6.451-5.944 15.226-25.077 16.566-39.009 17.017-0.342 0.15-0.484 0.1-0.422-0.17"/>
	<path id="path157" fill="#71A3FF" d="m98.189 260.84c-15.332-0.51-32.728-3.693-40.171-18.696-5.279-10.64 5.675-8.511 13.07-7.328 8.353 1.336 16.685 3.501 25.158 3.902 8.819 0.419 17.8-0.806 26.611-1.174 5.317-0.223 17.496-1.56 14.394 6.451-5.88 15.19-25.24 16.41-39.061 16.85"/>
	<path id="path159" fill="#72A4FF" d="m98.189 260.66c-15.25-0.51-32.384-3.559-39.802-18.512-5.221-10.523 5.708-8.291 12.885-7.143 8.273 1.323 16.585 3.319 24.974 3.717 8.243 0.392 16.568-0.568 24.807-0.926 4.498-0.194 19.012-2.147 16.105 5.646-5.73 15.34-24.91 17.21-38.971 17.21"/>
	<path id="path161" fill="#72A6FF" d="m98.189 260.47c-14.778 0-32.543-3.678-39.432-18.326-4.886-10.389 5.539-8.317 12.885-7.143 8.179 1.309 16.302 3.51 24.603 3.901 8.165 0.386 16.466-0.756 24.622-1.11 4.162-0.18 19.159-1.819 15.92 5.739-5.95 13.88-25.02 18.72-38.601 16.94"/>
	<path id="path163" fill="#73A7FF" d="m98.189 260.28c-15.228 0-32.637-3.826-39.523-18.974-4.37-9.612 7.036-7.106 13.162-6.125 8.089 1.295 16.215 3.329 24.418 3.717 8.121 0.384 16.32-0.573 24.437-0.925 4.093-0.178 18.979-1.989 15.736 5.554-5.93 13.79-24.71 18.53-38.231 16.75"/>
	<path id="path165" fill="#74A8FF" d="m98.189 260.28c-15.646-0.541-31.628-3.831-39.153-18.881-4.809-9.619 7.442-6.985 13.143-6.034 7.951 1.326 16.005 3.331 24.067 3.718 8.009 0.385 16.161-0.747 24.159-1.109 3.948-0.18 18.761-1.723 15.643 5.554-6.42 14.99-23.6 16.26-37.851 16.75"/>
	<path id="path167" fill="#75A9FF" d="m98.189 260.1c-14.727-0.507-30.423-3.297-38.032-17.242-5.415-9.925 3.67-8.662 11.109-7.651 7.701 1.048 15.277 3.118 23.036 3.789 7.921 0.685 15.966-0.387 23.882-0.739 4.637-0.207 18.689-2.641 17.771 4.628-0.674 5.334-8.079 11.33-12.525 13.161-7.91 3.26-16.74 4.05-25.231 4.05"/>
	<path id="path169" fill="#75AAFF" d="m98.189 259.91c-14.248 0-31.086-3.454-37.951-17.401-4.884-9.923 5.139-8.1 12.033-7.034 7.58 1.172 15.117 3.158 22.794 3.545 8.3 0.418 16.51-0.769 24.784-0.769 2.772 0 19.918-1.469 15.364 5.369-4.166 6.258-7.108 10.639-14.624 13.329-6.52 2.34-15.79 3.86-22.401 2.96"/>
	<path id="path171" fill="#76ABFF" d="m98.189 259.91c-14.101-0.499-32.028-3.494-37.95-18.327-3.727-9.335 6.62-6.895 12.884-5.808 7.633 1.325 15.472 3.104 23.215 3.495 6.205 0.313 40.045-5.084 38.691 3.795-0.813 5.332-7.883 11.25-12.479 12.874-8.03 2.85-15.89 3.68-24.361 3.98"/>
	<path id="path173" fill="#76ACFF" d="m98.189 259.73c-13.942-0.502-30.561-3.214-37.209-17.218-4.57-9.628 4.758-7.883 11.662-6.849 7.296 1.094 14.461 3.021 21.844 3.517 7.915 0.53 15.71-0.74 23.593-0.74 4.575 0 17.596-2.303 16.58 4.629-0.849 5.792-8.296 11.09-13.051 13.05-7.27 2.99-15.65 3.61-23.421 3.61"/>
	<path id="path175" fill="#76ADFF" d="m98.004 259.54c-13.445 0-30.565-3.436-36.654-17.031-4.36-9.735 5.407-7.752 12.327-6.547 7.904 1.376 15.915 3.157 23.933 3.557 7.552 0.377 15.371-0.692 22.928-1.053 4.993-0.238 16.098-1.604 13.195 5.895-4.91 12.66-23.78 16.76-35.736 15.18"/>
	<path id="path177" fill="#77AEFF" d="m98.004 259.36c-14.601 0-29.632-3.712-36.562-17.586-4.531-9.07 6.98-6.363 12.42-5.651 7.969 1.043 15.685 3.001 23.748 3.402 7.579 0.378 15.174-0.896 22.743-0.896 4.854 0 15.79-1.749 13.009 5.738-4.69 12.63-23.59 16.61-35.356 15"/>
	<path id="path179" fill="#78AFFF" d="m98.004 259.36c-13.338-0.512-29.536-3.186-35.729-16.66-1.004-2.185-3.329-6.189 0.092-7.126 3.433-0.94 7.741-0.082 11.2 0.462 8.026 1.264 15.902 3.269 24.042 3.674 7.375 0.368 15.021-0.685 22.401-1.052 4.86-0.243 15.521-1.523 12.982 5.709-4.81 13.72-22.96 14.62-34.986 15"/>
	<path id="path181" fill="#79B0FF" d="m98.004 259.17c-14.795 0-28.398-3.944-35.821-17.309-4.795-8.634 7.267-6.43 12.207-5.53 7.713 1.403 15.412 2.962 23.25 3.373 6.947 0.365 13.893-0.896 20.821-0.896 3.64 0 17.408-1.821 14.44 5.091-5.82 13.56-21.9 15.28-34.896 15.28"/>
	<path id="path183" fill="#79B1FF" d="m98.004 258.99c-14.083 0-28.755-3.633-35.452-17.032-4.373-8.751 6.851-6.173 12.022-5.467 7.845 1.07 15.644 3.365 23.615 3.43 7.101 0.058 14.326-0.745 21.423-1.081 4.876-0.229 15.086-1.471 12.641 5.709-4.13 12.12-23.34 15.97-34.246 14.44"/>
	<path id="path185" fill="#7AB2FF" d="m98.004 258.99c-13.177-0.525-29.47-3.221-34.988-17.032-3.377-8.452 5.95-6.524 11.929-5.438 7.68 1.396 15.413 3.23 23.244 3.401 7.041 0.153 14.055-0.926 21.081-0.926 4.716 0 15.058-1.692 12.611 5.554-4.46 13.21-22.5 14.08-33.876 14.45"/>
	<path id="path187" fill="#7BB3FF" d="m98.004 258.8c-13.461-0.54-28.568-3.17-34.619-16.754-3.785-8.497 6.157-6.357 11.744-5.345 7.537 1.366 15.369 3.353 23.059 3.4 6.924 0.043 13.978-0.734 20.897-1.083 4.962-0.25 14.647-1.415 12.24 5.524-4.46 12.89-21.98 14.26-33.316 14.26"/>
	<path id="path189" fill="#7BB4FF" d="m98.004 258.62c-13.191 0-28.415-3.464-34.248-16.568-3.811-8.56 6.242-5.973 11.715-5.19 7.417 1.061 14.668 2.819 22.167 3.217 7.084 0.376 14.186-0.896 21.261-0.896 4.754 0 14.41-1.566 12.056 5.367-4.02 11.83-22.26 15.65-32.956 14.07"/>
	<path id="path191" fill="#7CB5FF" d="m98.004 258.62c-12.975-0.525-28.032-3.227-33.878-16.384-3.578-8.053 5.469-6.264 10.922-5.462 7.332 1.078 14.645 3.333 22.092 3.333 6.737 0 13.482-0.476 20.21-0.832 3.046-0.162 16.644-1.52 13.514 4.719-6.42 12.8-19.76 14.11-32.856 14.62"/>
	<path id="path193" fill="#7DB7FF" d="m98.004 258.43c-12.904-0.53-27.708-3.124-33.508-16.196-3.569-8.042 5.51-6.027 10.738-5.276 7.319 1.051 14.51 2.872 21.906 3.285 4.394 0.246 37.19-3.744 33.354 3.935-6.19 12.4-19.74 14.25-32.486 14.25"/>
	<path id="path195" fill="#7EB7FF" d="m98.004 258.25c-12.756 0-27.498-3.313-33.137-16.014-3.515-7.914 5.597-5.847 10.738-5.092 7.126 1.046 14.361 3.149 21.583 3.149 4.438 0 36.6-3.462 32.936 3.886-6.12 12.28-19.54 14.06-32.116 14.06"/>
	<path id="path197" fill="#7EB7FF" d="m98.004 258.06c-13.108 0-26.525-3.26-32.768-15.735-3.823-7.641 5.767-5.914 10.552-5.185 7.156 1.091 14.151 2.861 21.399 3.286 6.878 0.403 13.752-0.878 20.631-0.878 4.544 0 13.914-1.563 11.656 5.183-3.72 11.11-21.69 14.94-31.476 13.33"/>
	<path id="path199" fill="#7FB9FF" d="m98.004 258.06c-12.455-0.518-26.778-3.008-32.396-15.643-3.439-7.735 5.499-5.844 10.552-5.092 7.034 1.047 13.905 2.683 21.028 3.101 5.031 0.295 34.714-4.101 32.102 3.749-4.19 12.6-20.38 13.43-31.286 13.88"/>
	<path id="path201" fill="#7FB9FF" d="m98.004 257.88c-11.812 0-26.049-2.961-31.655-14.625-3.805-7.915 3.602-6.806 9.475-5.826 6.554 1.093 13.211 2.71 19.849 3.098 4.664 0.271 36.282-3.829 33.246 3.746-4.83 12.05-19.61 13.6-30.916 13.6"/>
	<path id="path203" fill="#80BBFF" d="m98.004 257.69c-11.633 0-25.757-2.854-31.101-14.439-3.642-7.895 3.474-6.641 9.626-5.739 6.91 1.013 13.658 2.69 20.658 3.099 6.797 0.396 13.643-0.778 20.438-0.877 4.583-0.066 12.357-1.11 10.553 4.998-3.22 10.93-20.85 14.3-30.166 12.96"/>
	<path id="path205" fill="#80BCFF" d="m98.004 257.69c-11.52-0.502-25.316-2.646-30.73-14.255-3.562-7.64 3.122-6.825 9.104-5.825 6.405 1.07 12.795 2.715 19.294 3.096 7.193 0.422 14.389-0.718 21.584-0.789 4.63-0.046 12.493-1.343 10.552 5.001-3.59 11.7-20.09 12.34-29.806 12.76"/>
	<path id="path207" fill="#80BDFF" d="m98.004 257.51c-11.367-0.495-25.014-2.619-30.361-14.069-3.449-7.384 2.691-6.745 8.627-5.698 6.191 1.094 12.502 2.432 18.772 2.921 4.228 0.33 36.055-3.074 32.675 3.703-5.68 11.4-18.01 13.15-29.716 13.15"/>
	<path id="path209" fill="#81BEFF" d="m98.004 257.32c-11.299 0-24.71-2.707-29.991-13.884-3.468-7.341 2.806-6.29 8.579-5.649 6.462 0.717 12.704 2.696 19.218 3.104 7.004 0.439 14.071-0.627 21.077-0.787 4.514-0.104 11.987-1.205 10.183 4.814-3.12 10.41-20.23 13.75-29.066 12.41"/>
	<path id="path211" fill="#81C0FF" d="m98.004 257.14c-11.247 0-24.336-2.639-29.62-13.699-3.493-7.311 2.801-6.126 8.44-5.465 6.364 0.746 12.565 2.518 18.985 2.92 6.919 0.434 13.795-0.696 20.707-0.787 4.519-0.06 11.949-1.135 10.182 4.814-3.08 10.35-19.91 13.61-28.696 12.22"/>
	<path id="path213" fill="#82C1FF" d="m97.82 257.14c-10.765-0.369-24.096-2.603-29.065-13.516-3.196-7.02 2.553-6.588 8.303-5.511 6.011 1.126 12.632 2.92 18.752 2.92 6.867 0 13.668-0.625 20.521-0.738 4.275-0.07 11.566-1.177 9.996 4.628-3.05 11.25-19.42 11.88-28.51 12.22"/>
	<path id="path215" fill="#83C2FF" d="m97.82 256.95c-10.516 0.39-23.928-2.979-28.694-13.331-3.396-7.378 3.408-6.158 9.07-5.367 5.888 0.822 11.659 2.448 17.614 2.825 6.734 0.426 13.423-0.695 20.151-0.787 4.233-0.058 11.726-1.092 9.996 4.813-3.16 10.77-19.24 11.85-28.14 11.85"/>
	<path id="path217" fill="#84C3FF" d="m97.82 256.77c-10.531 0.265-23.546-2.771-28.326-13.146-3.387-7.352 3.412-5.904 8.888-5.182 5.762 0.761 11.6 2.778 17.428 2.778 6.666 0 13.304-0.625 19.966-0.741 2.945-0.052 12.092-1.09 9.997 4.165-3.97 9.94-18.36 13.59-27.96 12.13"/>
	<path id="path219" fill="#84C4FF" d="m97.82 256.77c-10.397-0.393-22.99-2.563-27.955-12.959-3.507-7.343 3.541-6.014 8.886-5.183 6.17 0.959 12.292 2.316 18.534 2.729 4.059 0.269 32.561-3.963 27.656 4.213-5.92 9.87-16.47 10.78-27.12 11.2"/>
	<path id="path221" fill="#85C5FF" d="m97.82 256.58c-10.112 0.392-22.9-2.947-27.584-12.772-3.219-6.752 2.675-5.938 7.933-5.279 6.4 0.802 12.618 2.873 19.116 2.873 5.984 0 11.953-0.634 17.936-0.741 4.369-0.078 11.003-1.131 9.443 4.444-2.91 10.42-18.22 11.48-26.84 11.48"/>
	<path id="path223" fill="#86C6FF" d="m97.82 256.4c-10.354 0.269-23.047-2.862-27.491-13.235-2.844-6.639 4.377-4.986 8.979-4.351 6.226 0.86 12.386 2.602 18.697 2.776 4.162 0.115 30.797-3.999 26.011 3.98-5.22 8.68-16.32 12.15-26.2 10.83"/>
	<path id="path225" fill="#86C8FF" d="m97.82 256.21c-10.276 0.372-22.718-2.81-27.121-13.051-2.796-6.504 4.515-4.824 8.794-4.167 6.148 0.945 12.251 2.506 18.512 2.593 5.839 0.081 11.676-0.741 17.518-0.741 4.179 0 9.797-0.914 8.399 4.26-2.6 9.62-18.1 12.08-26.1 11.11"/>
	<path id="path227" fill="#87C9FF" d="m97.82 256.21c-9.917-0.385-20.8-2.312-26.104-11.57-3.327-5.808 0.381-6.652 5.903-5.92 6.531 0.865 12.948 2.533 19.529 3.002 3.743 0.267 29.229-3.497 26.589 3.104-3.95 9.87-16.53 11.64-25.92 11.39"/>
	<path id="path229" fill="#87CAFF" d="m97.82 256.03c-9.863 0.368-22.167-2.83-26.381-12.681-2.595-6.066 3.656-4.826 7.888-4.262 6.185 0.824 12.218 2.578 18.493 2.687 3.638 0.063 28.071-3.253 25.546 3.056-3.89 9.7-16.31 11.52-25.55 11.19"/>
	<path id="path231" fill="#88CBFF" d="m97.82 255.84c-10.777 0.4-20.576-3.116-25.918-12.495-3.294-5.784 4.014-4.56 7.613-4.076 6.061 0.814 12.182 2.521 18.306 2.687 3.551 0.096 27.67-3.378 25.177 2.87-3.7 9.26-16.55 12.02-25.18 11.02"/>
	<path id="path233" fill="#8cf" d="m97.82 255.84c-9.485-0.305-20.934-2.254-25.178-11.847-2.68-6.057 2.168-5.406 7.241-4.725 6.003 0.807 11.84 2.575 17.938 2.687 3.338 0.062 27.737-2.892 24.807 2.962-4.84 9.67-15.07 10.42-24.81 10.93"/>
	<path id="path235" fill="#89CDFF" d="m97.82 255.66c-9.477 0.371-21.08-2.761-25.085-12.124-2.481-5.801 2.977-4.706 7.382-4.076 5.719 0.819 11.3 2.192 17.079 2.64 3.243 0.252 27.976-3.001 25.06 2.824-4.54 9.06-14.97 11.1-24.44 10.74"/>
	<path id="path237" fill="#8ACEFF" d="m97.82 255.47c-9.425 0.38-20.738-2.644-24.714-11.939-2.522-5.896 3.761-4.338 7.867-3.795 5.617 0.743 11.16 2.312 16.848 2.407 5.328 0.09 10.658-0.741 15.989-0.741 4.172 0 8.683-0.747 7.706 3.887-1.86 8.8-16.9 11-23.7 10.17"/>
	<path id="path239" fill="#8ACFFF" d="m97.82 255.29c-9.706 0.406-19.821-2.639-24.345-11.662-2.733-5.452 3.429-4.52 7.196-3.983 5.509 0.784 10.924 2.503 16.524 2.503 3.71 0 26.419-2.849 24.135 2.867-3.47 8.68-15.38 11.3-23.51 10.27"/>
	<path id="path241" fill="#8AD0FF" d="m97.82 255.29c-8.57-0.449-19.819-1.91-23.698-10.922-2.436-5.66 1.924-5.224 6.733-4.54 5.476 0.778 10.818 2.033 16.341 2.456 4.868 0.373 24.862-4.073 23.579 3.193-1.53 8.66-16.44 10.07-22.96 9.81"/>
	<path id="path243" fill="#8BD1FF" d="m97.82 255.1c-8.255 0.412-19.78-2.336-23.326-10.738-2.417-5.726 1.869-5.049 6.732-4.354 5.29 0.756 10.607 2.317 15.97 2.317 3.209 0 26.031-2.478 23.394 2.776-4.32 8.59-13.84 10.18-22.77 9.99"/>
	<path id="path245" fill="#8CD2FF" d="m97.82 254.92c-8.159 0.405-19.493-2.162-22.956-10.552-2.229-5.402 1.797-5.091 6.596-4.354 5.451 0.838 10.808 2.394 16.359 2.502 3.905 0.076 25.477-3.57 22.03 3.332-3.8 7.6-14.46 10.11-22.03 9.07"/>
	<path id="path247" fill="#8CD4FF" d="m97.82 254.92c-7.971-0.449-19.326-1.821-22.585-10.552-1.953-5.231 1.662-4.904 6.411-4.168 4.94 0.766 10.05 2.316 15.064 2.316 5.069 0 10.113-0.472 15.179-0.556 3.912-0.065 8.543-1.039 7.776 3.517-1.39 8.19-15.67 9.74-21.85 9.44"/>
	<path id="path249" fill="#8DD5FF" d="m97.634 254.73c-7.558 0.397-18.899-2.284-22.029-10.182-2.185-5.513 1.817-4.875 6.41-4.167 4.906 0.758 9.747 1.813 14.694 2.224 4.554 0.379 23.733-3.857 22.585 2.869-1.42 8.37-15.39 9.39-21.656 9.26"/>
	<path id="path251" fill="#8DD6FF" d="m97.634 254.54c-7.407 0.381-18.685-2.12-21.66-9.997-1.928-5.104 1.14-4.545 5.739-4.162 5.012 0.416 9.938 2.312 14.996 2.312 4.614 0 23.355-3.564 22.214 2.962-1.38 7.92-15.5 9.33-21.286 8.89"/>
	<path id="path253" fill="#8DD7FF" d="m97.634 254.36c-7.22 0.188-18.479-1.851-21.29-9.813-2.998-8.494 14.617-2.171 19.253-1.851 4.457 0.308 24.144-3.535 22.954 2.962-1.43 7.84-15.14 9.13-20.916 8.7"/>
	<path id="path255" fill="#8ED8FF" d="m97.634 254.36c-6.972 0.396-18.12-2.155-20.919-9.627-1.676-4.475 0.585-4.896 5.019-4.161 4.984 0.826 9.94 1.796 14.976 2.217 3.57 0.298 24.311-3.16 21.103 3.239-3.65 7.29-12.73 8.55-20.176 8.33"/>
	<path id="path257" fill="#8ED9FF" d="m97.634 254.18c-7.854 0.448-16.014-2.195-20.087-8.98-5.103-8.499 13.415-3.055 17.611-2.409 4.629 0.712 23.502-3.572 22.468 2.872-1.24 7.69-14.3 8.67-19.996 8.52"/>
	<path id="path259" fill="#8FDAFF" d="m97.634 253.99c-7.723 0.247-15.661-2.04-19.716-8.795-4.974-8.284 13.88-2.603 17.864-2.313 3.573 0.259 24.271-2.815 21.29 3.146-3.44 6.86-12.4 8.52-19.436 7.95"/>
	<path id="path261" fill="#8FDBFF" d="m97.634 253.99c-6.974-0.509-16.854-1.51-19.623-9.257-1.54-4.309 0.635-4.519 5.091-3.702 4.147 0.76 8.481 1.687 12.681 2.037 4.487 0.374 22.095-3.59 21.104 2.777-1.11 7.11-13.98 8.44-19.256 8.14"/>
	<path id="path263" fill="#8FDCFF" d="m97.634 253.8c-6.632 0.401-15.314-1.839-18.697-7.957-4.981-9.01 11.011-3.267 15.734-2.871 4.55 0.382 22.672-3.108 21.846 2.871-0.99 7.16-13.7 8.11-18.886 7.96"/>
	<path id="path265" fill="#90DDFF" d="m97.634 253.62c-7.234 0.223-14.745-1.81-18.605-8.236-4.905-8.165 13.194-2.364 16.754-2.13 2.686 0.177 23.713-2.41 20.179 2.869-4.07 6.09-11.34 8.14-18.326 7.5"/>
	<path id="path267" fill="#91DEFF" d="m97.634 253.44c-6.312 0.188-16.126-1.51-18.513-8.515-2.527-7.416 12.158-2.014 16.661-1.667 4.232 0.325 20.646-3.123 19.993 2.593-0.79 6.85-13.69 8.01-18.146 7.6"/>
	<path id="path269" fill="#90DFFF" d="m97.634 253.44c-6.966 0.413-14.272-2.045-17.864-8.052-4.671-7.809 12.718-2.171 16.198-1.945 4.041 0.262 20.15-3.209 19.438 2.408-0.85 6.68-13.05 7.73-17.776 7.59"/>
	<path id="path271" fill="#91E0FF" d="m97.634 253.25c-6.111 0.175-13.995-1.45-17.217-7.221-4.666-8.355 11.267-2.936 15.551-2.592 4.186 0.336 19.612-2.853 18.882 2.408-0.92 6.64-12.43 7.54-17.216 7.4"/>
	<path id="path273" fill="#92E1FF" d="m97.634 253.06c-6.03 0.174-13.654-1.359-16.846-7.035-4.762-8.468 11.815-2.408 16.013-2.408 2.579 0 20.807-2.277 17.494 2.686-3.79 5.68-10.13 7.33-16.666 6.76"/>
	<path id="path275" fill="#92E3FF" d="m97.634 253.06c-5.594 0.358-13.703-1.624-16.476-7.035-4.184-8.167 10.529-2.695 14.81-2.408 4.04 0.271 18.712-2.855 18.143 2.408-0.68 6.32-12.2 7.17-16.476 7.04"/>
	<path id="path277" fill="#92E3FF" d="m97.634 252.88c-5.098 0.137-14.875-1.451-16.662-7.59-2.052-7.051 12.45-1.636 16.662-1.48 3.734 0.138 16.629-3.026 16.105 2.222-0.61 6.11-12 6.98-16.106 6.85"/>
	<path id="path279" fill="#93E4FF" d="m97.634 252.69c-6.859 0.213-12.085-1.785-16.014-7.035-4.991-6.668 12.691-2.036 15.181-1.758 3.664 0.411 17.057-3.091 16.567 2.129-0.56 6.01-12.11 6.95-15.736 6.66"/>
	<path id="path281" fill="#94E5FF" d="m97.634 252.51c-6.649 0.206-11.779-1.688-15.643-6.851-4.874-6.512 12.463-1.664 14.81-1.664 3.665 0 16.616-2.703 16.197 2.035-0.5 5.59-11.91 7.18-15.366 6.47"/>
	<path id="path283" fill="#94E7FF" d="m97.634 252.51c-5.103 0.184-12.468-1.282-14.995-6.295-3.835-7.606 10.261-2.22 14.254-2.22 3.579 0 15.963-2.506 15.737 2.035-0.28 5.7-11.37 6.6-14.996 6.47"/>
	<path id="path285" fill="#94E7FF" d="m97.634 252.32c-5.356 0.156-12.2-1.269-14.81-6.48-3.263-6.518 10.553-2.195 14.068-1.758 2.272 0.283 16.745-2.045 15.458 1.85-1.85 5.61-9.77 6.54-14.716 6.39"/>
	<path id="path287" fill="#94E7FF" d="m48.021 229.37c0.959 3.239 1.919 6.479 2.878 9.718 0.235 0.795 7.259-0.358 8.414-0.461-1.695 4.051-4.367 7.625-6.293 11.479-0.74 1.479 5.788-0.977 6.479-1.297 2.283-1.058 4.791-2.373 6.48-4.26-0.401 2.172-4.608 8.379-4.074 9.997 0.754 2.283 12.337 4.483 14.995 5.369-3.871-2.311-7.741-4.622-11.612-6.933-1.82-1.086 2.177-8.483 2.913-10.469-3.271 0.987-6.542 1.974-9.813 2.961 2.22-3.552 4.449-7.206 7.037-10.55-1.465 0.374-7.905 2.946-8.899 2.039-2.776-2.54-5.548-5.41-8.505-7.6"/>
</g>
<metadata><rdf:RDF><cc:Work><dc:format>image/svg+xml</dc:format><dc:type rdf:resource="http://purl.org/dc/dcmitype/StillImage"/><cc:license rdf:resource="http://creativecommons.org/licenses/publicdomain/"/><dc:publisher><cc:Agent rdf:about="http://openclipart.org/"><dc:title>Openclipart</dc:title></cc:Agent></dc:publisher><dc:title>Architetto -- tazza di cafe</dc:title><dc:date>2010-03-28T09:45:48</dc:date><dc:description>Drawing by Francesco 'Architetto' Rollandin. From OCAL 0.18 release.</dc:description><dc:source>http://openclipart.org/detail/34771/architetto----tazza-di-cafe-by-anonymous</dc:source><dc:creator><cc:Agent><dc:title>Anonymous</dc:title></cc:Agent></dc:creator><dc:subject><rdf:Bag><rdf:li>cafe</rdf:li><rdf:li>clip art</rdf:li><rdf:li>clipart</rdf:li><rdf:li>coffee</rdf:li><rdf:li>cup</rdf:li><rdf:li>household</rdf:li></rdf:Bag></dc:subject></cc:Work><cc:License rdf:about="http://creativecommons.org/licenses/publicdomain/"><cc:permits rdf:resource="http://creativecommons.org/ns#Reproduction"/><cc:permits rdf:resource="http://creativecommons.org/ns#Distribution"/><cc:permits rdf:resource="http://creativecommons.org/ns#DerivativeWorks"/></cc:License></rdf:RDF></metadata></svg>
