<?xml version="1.0"?>
<svg xmlns:rdf="http://www.w3.org/1999/02/22-rdf-syntax-ns#" xmlns="http://www.w3.org/2000/svg" xmlns:cc="http://creativecommons.org/ns#" xmlns:dc="http://purl.org/dc/elements/1.1/" xmlns:svg="http://www.w3.org/2000/svg" id="svg2" viewBox="0 0 1530 990" version="1.1">
  <g id="layer1" transform="translate(0 -62.362)">
    <path id="path2849" d="m186.91 108.12c-0.22 7.48-0.86 16.81-1.75 26.1-0.42 4.28-0.86 8.45-1.35 12.4 6.09 2.42 11.03 7.07 13.35 13.16 1.77 0.13 3.55 0.24 5.37 0.41 7.57 0.7 15.13 1.73 21.13 2.9-5.4-7.37-12.11-17.07-18.78-27.06-6.68-9.99-13.14-19.96-17.97-27.91zm385.09 20.16c-44.53 0-80.98 34.51-84.06 78.25l-69.38 26.59 2.88 7.47 214.28-81.75 2.84 7.47-150.09 57.57c2.81 20.95 13.32 39.45 28.59 52.59l-66.97 81.87c-3.62-4.78-8.72-8.46-14.59-9.96 0.3-11.99-11.33-21.54-22.97-20.91-13.89-0.74-26.64 14.98-20.19 28.09-0.28 3.48-3.1 3.59-6.03 3.47l-95.06-94.56c11.86-13.99 19.03-32.1 19.03-51.91 0-44.39-35.89-80.28-80.28-80.28-6.5 0-12.82 0.8-18.88 2.25 6.22 9.24 12.43 18.15 17.16 24.56 2.25 3.06 3.93 5.17 5.25 6.75 0.52 0.25 1.06 0.54 1.69 1 0.59 0.44 1.36 1.02 2.34 2.5 0.98 1.49 1.69 4.05 1.56 5.35-0.12 1.29-1.19 2.52-2.31 2.43-1.11-0.08-1.88-0.67-2.47-1.12-0.63-0.49-1.16-0.98-1.65-1.5-1.43-0.48-3.26-0.99-5.75-1.5-5.79-1.18-13.67-2.25-21.44-2.97-2.38-0.22-4.73-0.38-7.03-0.53-0.96 10.25-9.13 19.24-20.35 21.56-2.96 0.62-5.91 0.73-8.74 0.38-0.72 3.59-1.37 7.52-1.97 11.5-1.17 7.71-2.07 15.6-2.32 21.5-0.1 2.54-0.02 4.44 0.1 5.94 0.38 0.6 0.74 1.23 1.06 1.96 0.3 0.68 0.69 1.59 0.5 2.69s-1.65 1.85-2.94 1.66c-1.28-0.19-3.57-1.51-4.78-2.81-1.21-1.31-1.59-2.2-1.87-2.88-0.3-0.73-0.45-1.31-0.57-1.88-0.69-0.94-1.61-2.09-2.65-3.4 0.82 4.23 1.85 10.02 2.65 16.44 0.16 1.28 0.3 2.61 0.44 3.93 12.69 27.61 40.56 46.75 72.97 46.75 19.81 0 37.92-7.16 51.91-19.03l89.68 89.16c-6.71 4.59-11.13 12.63-9.18 20.47 1.26-0.34 2.58-0.56 3.93-0.63 0.32-0.06 0.65-0.09 0.97-0.09 6.55 0 12.35 3.28 15.97 8.31 3.54-3.4 8.22-5.56 13.44-5.56 5.84 0 11.08 2.64 14.72 6.78 3.63-4.13 8.85-6.78 14.68-6.78 5.24 0 9.94 2.18 13.47 5.59 3.46-4.82 8.89-8.04 15.1-8.31 0.71-2.24 1.12-4.62 1.12-7.09 0.04-1.17 0-2.32-0.12-3.47l72.06-87.88c12.86 7.95 28.02 12.53 44.25 12.53 46.55 0 84.28-37.73 84.28-84.28s-37.73-84.28-84.28-84.28zm418 0c-31.23 0-58.47 16.99-73.03 42.22-1.34-8.01-2.69-13.66-2.69-13.66-81.99-33.95-42.95 102.2-100 168.6 0 0 12.14-8.79 28.19-22.22-5.74 30.05-13.94 61.82-33.91 85.06 0 0 85.53-61.82 102.88-108.56 3.08-8.3 2.87-20.99 1.68-32.56 13.21 29.29 42.66 49.68 76.88 49.68 14.3 0 27.8-3.55 39.6-9.84-12.9-14.62-29.97-29-39.41-45.91-0.3 0.02-0.6 0.07-0.91 0.07-7.89 0-14.28-6.1-14.28-13.6 0-7.49 6.39-13.56 14.28-13.56s14.32 6.07 14.32 13.56c0 3.73-1.6 7.11-4.19 9.56 7.59 15.99 22.89 29.22 35.39 42.1l-7.9 4.69c0.9 1.05 1.8 2.07 2.7 3.09 10.8 12.22 21.5 21.74 29.3 26.16 19.1 10.79 39.8 10.95 58.9 8.31 19-2.64 36.9-7.97 50.5-9.22 6.8-0.62 12.4-0.22 16.6 1.44 3.6 1.47 6.4 3.83 8.7 8.22-1.4 2.74-2.7 5.69-3.6 8.97-0.9 2.81-0.7 4.68-0.9 7.96-0.1 3.29-0.2 7.3-0.3 11.54-0.1 6.58-0.1 13.68-0.3 19.06h-36.7c-8.9 0-15.9 7.04-15.9 15.94v111.53c0 8.9 7 15.93 15.9 15.93h42.5c8.9 0 16-7.03 16-15.93v-111.53c0-6.74-4-12.4-9.9-14.76 0.3-5.81 0.3-13.2 0.4-20.06 0.1-4.2 0.2-8.16 0.3-11.22 0.1-2.67 0.5-5.23 0.4-5.25 3.7-12.24 10.7-18.24 20.8-23.09 10.3-4.87 23.7-7.84 37.8-12.47 9.4-3.1 19.2-7.02 28.5-13.03 12.4 7.22 26.8 11.34 42.2 11.34 42.8 0 78.1-31.76 83.6-72.96l-150.1-57.57 2.8-7.47 214.3 81.75 2.9-7.47-69.4-26.59c-3.1-43.74-39.5-78.25-84.1-78.25-46.5 0-84.2 37.73-84.2 84.28 0 25.09 10.9 51.2 28.3 67-6 3.08-12.2 5.47-18.6 7.56-13.3 4.39-27 7.29-39.1 13.04-5.9 2.82-11.5 6.51-16.2 11.37-3.2-4.08-7.2-7.17-11.7-8.97-6.8-2.73-14.3-2.99-22.1-2.28-15.6 1.43-33.3 6.81-51.1 9.28s-35.4 2.13-51.3-6.84c-5.7-3.27-14-10.41-22.8-19.84 19.6-15.7 32.3-43.4 32.3-70.32 0-46.55-37.8-84.28-84.3-84.28zm-816.28 24.38c-1.14 0.02-2.3 0.13-3.47 0.37-9.4 1.95-15.32 10.31-13.59 18.63 1.72 8.32 10.47 13.66 19.87 11.72 9.4-1.95 15.32-10.31 13.59-18.63-1.5-7.28-8.4-12.27-16.4-12.09zm-61.97 17.34c6.54 6.61 14.69 15.27 22.78 24.16 8.09 8.88 15.89 17.73 21.75 24.75 0.3-6.1 1.14-13.71 2.28-21.22 0.48-3.18 1-6.26 1.56-9.22-4.91-2.69-8.76-6.96-10.65-12.28-3.84-0.47-7.87-0.99-11.97-1.6-9.23-1.36-18.45-3-25.75-4.59zm1219.6 44c7.9 0 14.3 6.07 14.3 13.56 0 7.5-6.4 13.6-14.3 13.6-0.2 0-0.4-0.03-0.5-0.04-7.5 15.82-19.3 24.21-29 33.82-3.4 3.34-7 6.25-10.6 8.81l-6.2-6.37c2.9-2.07 5.7-4.36 8.3-6.97 9.1-8.98 21.3-15.93 27.9-33.19-2.6-2.46-4.2-5.88-4.2-9.66 0-7.49 6.4-13.56 14.3-13.56zm-1205.6 4.38c-0.81 0-1.59 0.02-2.34 0.09-6.01 0.52-10.35 2.77-14.16 6.69-7.61 7.84-12.352 23.11-16.125 41.96-6.127 30.63-10.103 70.32-27.281 102.66 7.363-5.94 15.782-12.91 24.968-21.22 23.368-21.14 48.748-48.35 56.878-70.25 2.94-7.91 2.52-22.74 0.97-35.15-1.31-10.46-2.96-17.91-3.54-20.44-6.53-2.54-12.16-3.96-16.87-4.28-0.86-0.06-1.69-0.07-2.5-0.06zm315.69 72.78s-23.96-0.34-26.82 35.37c5.43-11.63 11.99-28.25 25.26-22.12l1.56-13.25zm-217.16 13.81c-0.64-0.02-1.29 0-1.94 0.03-18.4-0.39-33.13 16.39-34.4 34.03 0.36-0.02 0.73-0.08 1.09-0.09 9.01-0.37 18.04 2.27 25.44 7.44 7.38 5.14 12.94 12.69 15.72 21.24 0 0.03 0.02 0.05 0.03 0.07l36.34 107.5 7.19 0.06c-6.38-43.02-12.66-86.04-18.59-129.13 5.25-19.37-11.06-40.65-30.88-41.15zm760 0c-0.64-0.02-1.29 0-1.94 0.03-18.4-0.39-33.13 16.39-34.4 34.03 0.36-0.02 0.73-0.08 1.09-0.09 9.01-0.37 18.04 2.27 25.44 7.44 7.38 5.14 12.94 12.69 15.72 21.24 0 0.03 0.02 0.05 0.03 0.07l36.38 107.5 7.2 0.06c-6.4-43.02-12.7-86.04-18.6-129.13 5.2-19.37-11.1-40.65-30.92-41.15zm-388.72 0.12c-1.26-0.01-2.54 0-3.81 0.03-21.54 1.01-36.95 26.49-28.44 46.22 3.86 17.29 7.71 34.57 11.6 51.85l12-35.5c0-0.02 0.02-0.04 0.03-0.07 2.71-8.36 8.08-15.76 15.22-20.9 7.15-5.15 15.9-7.91 24.72-7.81 6.59 0.07 13.06 1.8 18.84 4.84-1.59-6.61-3.2-13.24-4.81-19.84-5.59-13.19-20.89-17.58-34-18.03-3.77-0.46-7.55-0.74-11.35-0.79zm759.84 0c-0.8 0-1.5 0.01-2.3 0.03-21.7-0.07-38.2 25.15-30 45.19 3.9 17.63 7.9 35.23 11.8 52.85l12-35.47v-0.07c2.7-8.36 8.1-15.76 15.3-20.9 7.1-5.15 15.9-7.91 24.7-7.81 6.6 0.07 13.1 1.79 18.9 4.84-1.6-6.52-3.2-13.05-4.8-19.56-4.8-11.59-17.6-17.27-29.6-17.69-5.3-0.79-10.6-1.39-16-1.41zm-1164.7 41.82c-0.45 0-0.89 0.01-1.35 0.03-10.35 0.42-20.57 6.13-26.37 14.72-5.81 8.58-7.27 20.17-3.81 29.93v0.07l45.81 135.56c2.21 6.52 6.54 12.37 12.12 16.4 5.59 4.04 12.52 6.3 19.41 6.35l117.97 0.81c-0.21-0.51-0.38-1.08-0.38-1.75 0-2.24 1.45-3.56 2.41-4.22s1.86-1.02 2.91-1.37c2.08-0.71 4.66-1.26 7.87-1.75 6.03-0.93 14.31-1.63 23.78-2.07 1.43-1.61 2.73-3.33 3.82-5.18 1.56-5.55-0.41-12.28-5.1-20.85-4.53-8.28-11.32-18-18.16-29.06-1.89-0.34-3.79-0.65-5.71-0.65h-0.03l-102.22-0.72-2.85-0.04-0.9-2.68-37.29-110.25-0.03-0.03v-0.04c-2.21-6.87-6.79-13.05-12.71-17.18-5.56-3.88-12.41-6.02-19.19-6.03zm434.81 0c-6.63 0.19-13.28 2.44-18.66 6.31-5.73 4.13-10.14 10.18-12.31 16.9v0.04l-0.03 0.03-37.25 110.25-1.09 3.28-3.44-0.63-92.03-17.34c-11.75 24.02-27.3 42.59-32.38 56.16 6.25 5.76 14.88 9.13 23.38 8.97h0.31l0.34 0.03 128.57 19.03c6.8-0.1 13.64-2.33 19.15-6.32 5.58-4.02 9.92-9.88 12.13-16.4l45.81-135.56v-0.07c3.52-9.92 1.93-21.74-4.09-30.37-6.03-8.63-16.57-14.2-27.1-14.31-0.44-0.01-0.87-0.02-1.31 0zm325.19 0c-0.45 0-0.89 0.01-1.35 0.03-10.35 0.42-20.57 6.13-26.37 14.72-5.81 8.58-7.27 20.17-3.81 29.93v0.07l45.81 135.56c2.21 6.52 6.54 12.37 12.12 16.4 5.59 4.04 12.52 6.3 19.41 6.35l128.9 0.91h0.1c8.8 0.16 17.7-3.37 24-9.5 5.5-5.38 9.1-12.86 9.9-20.54h-7.6c-13.1 0-23.9-10.74-23.9-23.93v-12.97c-0.6-0.04-1.3-0.07-2-0.06l-102.2-0.72-2.9-0.04-0.9-2.68-37.28-110.25-0.03-0.03v-0.04c-2.21-6.87-6.79-13.05-12.71-17.18-5.56-3.88-12.41-6.02-19.19-6.03zm434.81 0c-6.6 0.19-13.3 2.44-18.7 6.31-5.7 4.13-10.1 10.18-12.3 16.9v0.07l-37.3 110.25-1 3.28-3.5-0.63-94.4-17.81v31.63c0 13.19-10.8 23.93-24 23.93h-7.2l0.6 0.54c6.3 6.13 15.2 9.66 24 9.5h0.3l0.3 0.03 128.6 19.03c6.8-0.1 13.6-2.33 19.2-6.32 5.5-4.03 9.9-9.88 12.1-16.4l45.8-135.56v-0.07c3.5-9.92 1.9-21.74-4.1-30.37s-16.6-14.2-27.1-14.31c-0.4-0.01-0.9-0.02-1.3 0zm-241.2 36.62h57.6v48.38h-57.6v-48.38zm-776.99 8.97c-5.22 0-9.61 4.22-10.06 9.94-0.03 0.38-0.1 0.76-0.22 1.12-2.82 35.39 12.89 62.13 27.16 84.22 7.2 11.16 14.03 20.99 17.69 30.6 3.65 9.6 3.46 20-3.94 28.31-0.87 0.98-2.13 1.59-3.44 1.65-10.42 0.4-19.36 1.14-25.47 2.07-0.81 0.12-1.07 0.24-1.78 0.37 2.17 0.4 4.09 0.81 7.25 1.16 9.54 1.04 22.96 1.68 37.78 1.68s28.24-0.64 37.78-1.68c3.15-0.34 5.03-0.76 7.19-1.16-0.96-0.17-1.38-0.33-2.53-0.5-6.64-0.95-16.27-1.71-27.41-2.06-1.33-0.04-2.64-0.65-3.53-1.66-7.16-8.12-7.46-18.26-4.03-27.62s9.95-18.89 16.94-29.66c13.96-21.54 29.83-47.5 28.43-81.66v-0.21c0.01-0.4 0.06-0.8 0.16-1.19 0.23-0.92 0.34-1.88 0.34-2.84 0-6.2-4.58-10.88-10.09-10.88-5.21 0-9.58 4.2-10.06 9.88-0.17 2.29-2.18 4.33-4.47 4.53-2.29 0.19-4.6-1.49-5.16-3.72-1.21-4.68-5.12-7.94-9.72-7.94-4.61 0-8.55 3.29-9.74 8-0.52 2.1-2.59 3.72-4.76 3.72h-0.37c-2.17 0-4.23-1.62-4.75-3.72-1.19-4.7-5.16-8-9.78-8-4.6 0-8.5 3.26-9.72 7.94-0.59 2.19-2.86 3.81-5.12 3.62-2.27-0.19-4.26-2.17-4.47-4.43-0.48-5.68-4.89-9.88-10.1-9.88zm1053.5 15.75l-41 121.53c-2.4 6.97-6.6 13.25-12.2 18.06 5.8 25.46 11.5 50.91 17.3 76.38-61.1 3.71-122.4 4.99-183.4 10.28-19.2 5.48-29.2 30.02-20.2 47.72 19.5 65.34 37.8 131.09 58.7 195.94 10.6 19.74 42.5 22.56 55.4 3.93 9.3-11.58 8.6-28.08 2.7-41.03-14.1-47.72-28.2-95.46-42.3-143.18 61.3-3.84 122.9-4.77 184.1-10.57 12.6-2.23 28.6-5.54 33.6-19.22 6.3-17.65-3.3-35.53-5.9-52.97-15.8-68.89-31-137.98-46.8-206.87zm-759.99 0.03l-41.06 121.5c-2.37 6.98-6.6 13.28-12.16 18.1 5.77 25.45 11.54 50.88 17.29 76.34-61.61 4.02-123.54 4.53-184.94 10.81-19.08 6.56-27.53 31.59-18.03 49.03 19.27 64.83 37.37 130.04 58.21 194.38 11.15 20.64 45.93 22.04 57.35 0.78 8.21-12.83 4.87-28.97-0.56-42.16-13.71-46.39-27.43-92.77-41.16-139.15 63.27-4.3 126.89-4.28 189.91-11.63 12.07-2.14 26.36-8.18 28.84-21.56 4.06-19.76-6.13-38.47-8.81-57.72-15.21-66.18-29.68-132.54-44.88-198.72zm-494.84 28.47c-16.64 72.83-33.44 145.61-48.72 218.69-0.61 20.14 19.56 36.76 39.19 33.97 54.98 2.88 109.97 5.69 164.97 8.47-15.33 54.28-33.38 108.01-46.97 162.78-1.19 22.6 24.91 41.47 45.87 31.87 13.71-5.32 21.13-19.59 23.31-33.44 18.29-63.79 38.84-126.99 55.5-191.18 1.08-19.38-16.94-36.38-36.06-35.35-22.46-2.74-44.88-5.75-67.34-8.56-3.16-21.91-6.38-43.79-9.63-65.69l-49.65-0.34c-8.54-0.06-16.97-2.78-23.91-7.75l-0.12-0.1c-6.97-5.02-12.25-12.21-15-20.34l-31.44-93.03zm760 0c-16.64 72.83-33.44 145.61-48.72 218.69-0.61 20.14 19.56 36.76 39.19 33.97 54.98 2.88 109.96 5.69 164.96 8.47-15.3 54.28-33.4 108.01-47 162.78-1.1 22.6 25 41.47 45.9 31.87 13.7-5.32 21.1-19.59 23.3-33.44 18.3-63.79 38.9-126.99 55.5-191.18 1.1-19.38-16.9-36.38-36-35.35-22.5-2.74-44.9-5.75-67.4-8.56-3.1-21.91-6.4-43.79-9.6-65.69l-49.66-0.34c-8.59-0.06-17.07-2.82-24.03-7.85-6.97-5.02-12.25-12.21-15-20.34l-31.44-93.03zm247.03 11.56c14.4 0 26 12.97 26 28.97s-11.6 28.97-26 28.97c-14.3 0-25.9-12.97-25.9-28.97s11.6-28.97 25.9-28.97zm0 13.72c-7.4 0-13.5 6.82-13.5 15.25s6.1 15.28 13.5 15.28c7.5 0 13.6-6.85 13.6-15.28s-6.1-15.25-13.6-15.25z" fill="#0f0727" transform="translate(0 62.362)"/>
    <g id="g3679" stroke="#b7b7b7" stroke-width=".6" transform="translate(0,-28)" fill="none">
      <path id="path2848" d="m1349.2 1013c2.2094-3.4625 4.5626-6.8544 6.772-10.317 9.5454-14.959-2.0053 2.75 4.2573-6.5732 0.3102-0.46188 0.4246-1.0473 0.8712-1.4147 1.1204-0.92143 3.0293-0.14117 3.3467 1.0178 0.2299 0.83935-0.04 1.7312 0.079 2.5878 0.7286 5.2307 0.7087-0.00013 1.2082 5.8484 0.2866 3.3546-0.4799 7.6391 4.1589 8.8674 0.7434 0.1969 1.5438 0.5108 2.2971 0.345 11.666-5.0138 15.386-18.902 19.376-29.186 0.3954-1.1334 0.3297-2.3606 0.6929-3.5022 1.7291-5.4352 0.5247 0.33692 0.9703-1.915"/>
      <path id="path2850" d="m1355.9 987.51c13.219-0.52134 26.288-2.337 39.349-4.1143 3.1006-0.42194 6.2319-0.69827 9.3018-1.2658 2.8055-0.5187 5.5089-1.3984 8.2961-1.9877 10.896-2.3038 5.1035-0.41224 14.628-3.3265 4.6351-1.4182 6.8164-2.2478 11.22-4.0077 0.2057-0.0822 4.3304-1.9252 5.3258-2.0606 1.6377-0.22285 1.6838 0.41737 1.4433 1.3303"/>
      <path id="path2852" d="m1354.4 996.24c5.8657 1.7161 12.437 0.8133 18.428 0.10134 2.5822-0.3069 5.199-0.44216 7.7466-0.9207 3.0023-0.56395 5.8934-1.5112 8.8616-2.199 11.195-2.594 23.854-5.1319 35.423-5.585 2.2713-0.089 4.5478-0.0383 6.8194-0.12305 1.478-0.0552 2.9456-0.3049 4.4249-0.29677 0.9905 0.005 1.9591 0.26569 2.9461 0.3373 0.7982 0.0579 2.0408-0.45233 2.3945 0.17371 0.1715 0.30368-0.2504 0.64082-0.3756 0.96123"/>
      <path id="path2854" d="m1401.5 997.39c-4.6812 0.89264-6.7172 2.096-8.3418 3.3406-1.2956 0.9926-3.0635 2.4522-3.4758 3.4859-0.2308 0.5789 0 1.1619 0 1.7429 0 0.4841-0.2874 0.972 0 1.4524 0.7173 1.1988 4.1278 1.6774 9.037 0.8715 10.716-1.7592 16.171-4.5957 19.464-7.2622 0.027-0.022 4.0568-4.0907 2.7806-4.3573-0.9752-0.20374-1.8811 0.47842-1.3903 0.58097 1.111 0.23214 8.6582-2.0595 9.0369-1.7429 0.26 0.21725-0.5008 0.91207 0 1.0167 0.9184 0.19189 4.7672-0.30081 6.2563-0.14524 0.2073 0.0217-0.1638 0.11101 0 0.14524 0.1639 0.0342 0.5915-0.0433 0.6952 0 0.7154 0.29895-1.1472 0.96949 0.6951 1.162 1.3494 0.14097 3.3586-0.12075 4.171-0.29049 0.3299-0.0689 1.2324-0.58098 2.0854-0.58098 0.2317 0-0.1638 0.11101 0 0.14524 0.1638 0.0342 0.5312 0.0342 0.6951 0 0.3277-0.0685-0.4145-0.24718 0-0.29048s0.9507 0.0306 1.3903 0c0.7926-0.0552 1.3098-0.22566 2.0854-0.29049 3.762-0.31441 7.3481-0.70126 11.122-1.0167 0.8399-0.0702 8.1007-0.68173 8.3417-0.58098 0.2997 0.12523 0 2.0604 0 2.1787 0 2.261-1.5626 4.4542-3.4757 6.6813-1.1932 1.3889-4.6233 4.8036-6.2564 6.1002-1.0328 0.8201-4.001 2.6532-5.5612 3.6312-0.4634 0.2905-0.8129 0.59-1.3902 0.8714-0.1291 0.063-0.5801 0.2094-0.6952 0.1453-2.283-1.2721-1.6345-2.9876-1.3903-4.2121 0.8079-4.0513 4.0626-7.9925 9.0369-11.91 1.4286-1.125 3.0258-2.242 4.8661-3.3406 1.4073-0.84013 12.334-8.9152 13.333-9.7805 0.6525-0.56476 1.7351-2.6602 1.7351-3.2412v-4.5026c0-0.0484-0.2317-0.14524 0-0.14524 0.2318 0 0 0.0968 0 0.14524v0.72623"/>
    </g>
  </g>
  <metadata>
    <rdf:RDF>
      <cc:Work>
        <dc:format>image/svg+xml</dc:format>
        <dc:type rdf:resource="http://purl.org/dc/dcmitype/StillImage"/>
        <cc:license rdf:resource="http://creativecommons.org/licenses/publicdomain/"/>
        <dc:publisher>
          <cc:Agent rdf:about="http://openclipart.org/">
            <dc:title>Openclipart</dc:title>
          </cc:Agent>
        </dc:publisher>
        <dc:title>Ice Cream iPod</dc:title>
        <dc:date>2012-02-09T18:50:21</dc:date>
        <dc:description>juxtaposition of two couples, drawn in a public sign/ pedestrian style. the couple on the left is sharing a milkshake, an iconic image of young love in 1950s USA. The couple on the left is drawn almost identically, but instead sharing an iPod- style mp3 player. This is an iconic image of young love 1-2 generations later in the 1990s or 2000s.</dc:description>
        <dc:source>http://openclipart.org/detail/168051/ice-cream-ipod-by-last-dino</dc:source>
        <dc:creator>
          <cc:Agent>
            <dc:title>Last-Dino</dc:title>
          </cc:Agent>
        </dc:creator>
        <dc:subject>
          <rdf:Bag>
            <rdf:li>1950</rdf:li>
            <rdf:li>1950s</rdf:li>
            <rdf:li>1990</rdf:li>
            <rdf:li>1990s</rdf:li>
            <rdf:li>2000</rdf:li>
            <rdf:li>50s</rdf:li>
            <rdf:li>b&amp;w</rdf:li>
            <rdf:li>black and white</rdf:li>
            <rdf:li>boy</rdf:li>
            <rdf:li>bw</rdf:li>
            <rdf:li>clip art</rdf:li>
            <rdf:li>clipart</rdf:li>
            <rdf:li>diner</rdf:li>
            <rdf:li>fifties</rdf:li>
            <rdf:li>generation</rdf:li>
            <rdf:li>generations</rdf:li>
            <rdf:li>girl</rdf:li>
            <rdf:li>ice cream</rdf:li>
            <rdf:li>ipod</rdf:li>
            <rdf:li>love</rdf:li>
            <rdf:li>milkshake</rdf:li>
            <rdf:li>misic</rdf:li>
            <rdf:li>mp3</rdf:li>
            <rdf:li>nineties</rdf:li>
            <rdf:li>share</rdf:li>
            <rdf:li>sharing</rdf:li>
            <rdf:li>sign</rdf:li>
            <rdf:li>sundae</rdf:li>
          </rdf:Bag>
        </dc:subject>
      </cc:Work>
      <cc:License rdf:about="http://creativecommons.org/licenses/publicdomain/">
        <cc:permits rdf:resource="http://creativecommons.org/ns#Reproduction"/>
        <cc:permits rdf:resource="http://creativecommons.org/ns#Distribution"/>
        <cc:permits rdf:resource="http://creativecommons.org/ns#DerivativeWorks"/>
      </cc:License>
    </rdf:RDF>
  </metadata>
</svg>
