<?xml version="1.0"?>
<svg xmlns:rdf="http://www.w3.org/1999/02/22-rdf-syntax-ns#" xmlns="http://www.w3.org/2000/svg" xmlns:cc="http://creativecommons.org/ns#" xmlns:dc="http://purl.org/dc/elements/1.1/" xmlns:svg="http://www.w3.org/2000/svg" id="Layer_1" style="enable-background:new 0 0 203.21 225.137" xml:space="preserve" viewBox="0 0 203.21 225.137" version="1.1" y="0px" x="0px">
<path id="path6428" fill="#fffaef" d="m127.14 223.39c-11.61-4.79-21.85-7.23-37.063-17.69-7.239-4.61-28.581-16.56-33.083-21.04-7.192-5.21-13.937-12.01-17.822-20.6-0.334-1.993 0.1538-5.0205 0.5048-7.1175 0.986-5.858-1.8805-9.688-0.97552-15.108 0.905-0.674 3.6334-0.25428 3.8614-1.1483 2.376 1.579 4.115 4.3912 6.473 5.9862 1.26 3.392 5.4943 5.4966 8.4493 7.7246 5.1869 3.1139 19.642 16.584 22.444 16.507 2.196 2.392 6.6279 2.5451 7.5189 6.2401 2.604 2.459 4.8179 1.758 8.6519 3.879 1.322 3.263 12.576 1.6543 14.097 4.7213 1.221 0.009-2.2467 7.6396-1.9377 9.4426 1.008 0.432 3.0432-0.24848 3.5242 0.70952-0.859 2.378-2.4547 3.0908-3.2217 5.5638 1.627 3.02 2.0076 1.6217 4.0146 4.7897 3.9238 3.928 8.5416 7.4628 10.306 9.171 1.817 2.464 5.6682 2.8685 7.3192 4.7555 0.073 0.436-1.1845 2.4887-1.1985 2.8347-0.404-0.123-1.839 0.68752-1.865 0.38452z"/><path id="path7174" fill="#fff" d="m41.062 69.156c-2.6931 4.6423 1.597 9.9347 1.3893 14.853 1.6339 10.899 2.6912 23.605 11.298 31.303 4.6066 1.5178 5.3275-5.1122 2.9688-7.75-2.6523-5.6956-7.6905-10.639-6.3125-17.406-0.57689-7.436-3.8677-14.998-6.875-21.344-0.68575-0.30347-2.1025-0.64132-2.4688 0.34375z"/><path id="path6394" d="m8.3125 59.781c-1.727 1.2584-0.89379 3.6123-2.75 4.7188 0.52566 2.2044-1.9313 2.8614-1.875 5.75-0.51907 1.5571 0.63259 3.8641 0.03125 4.2812-1.5517 5.2592-0.77004 11.642 0 16.5 0.31867 4.5603 2.2695 8.1357 2.3125 12.719 1.9803 3.9799 2.2993 9.8408 5.0938 14.031 1.125 5.5311 5.6628 8.0895 7.528 13.304 2.5412 3.206 3.5217 7.0869 5.662 10.432 1.526 1.4049 1.7756 3.9819 3.4062 4.7303 0.54548 3.3104 3.8564 4.3039 4.2327 7.782 1.4155-2.073 1.9582 7.5338 4.2023 4.1579 2.4631 1.2488 4.2604-0.63982 5.7457-1.9455 1.0064-3.8097-2.8774-6.9842-3.4137-10.514-1.6859-4.06-0.37721-8.7116-0.55066-13.166-2.7918 3.0417-3.3639-1.6015-5.1875-3.1875-1.9604-1.5614-2.9165-4.3084-4.7812-6.7188-2.6479-4.7849-5.6556-9.4272-7.5938-14.531-2.9543-6.1958-4.1968-13.024-5.8438-19.656-1.8462-6.2053-2.357-12.544-2.5625-18.875-0.35099-2.8981 0.32652-5.572-0.15625-8.4062-0.31692-1.1692-2.55-2.9278-3.5-1.4062z" fill="#ab0635"/><path id="path6382" d="m61.438 7.25c-2.541 0.1885-3.804 1.4854-6.313 0.9375-2.085 0.2642-5.177-1.0978-6.531 1.7187-1.352 1.7768-3.198 1.1198-5.25 3.0938-5.696 0.939-11.159 2.875-15.094 7.406-7.204 5.686-11.235 14.278-15.219 22.282-5.3951 16.405-3.7095 34.044 0.1875 50.625 3.0084 14.779 10.152 28.863 20 40.062 4.1233 4.622 8.8272 9.7449 15.5 9.6875 3.4927 2.9298 2.917 2.3714 12.406 5.375 10.352-3.1014 12.015-16.443 8.5-25.25-2.3577-7.4088-4.3517-14.992-9.4375-21.125-4.1115-7.0821-1.0591-15.48-4.0312-23-1.106-6.838-4.261-13.55-2.156-20.553-0.54601-9.6048-1.4254-4.0721 1.5-12.656 4.3201-1.0448 1.7127-6.7195 5-8.5938 1.1803-3.1758 2.635-6.0599 5.1562-8.2812 0.02728-2.082 0.85259-2.3649 2.4688-3.4375 0.86554-1.385 3.7288-1.7212 3.3125-4.2812 0.84192-1.0717 3.6476-2.0014 2.2317-4.7391-0.553-2.234 2.633-6.294-1.264-7.1058-2.757-0.0264-1.965-1.871-5.281-1.5937-1.883-0.2782-3.768-0.6955-5.687-0.5625zm-19.673 61.571c1.9888 1.9385 3.2235 8.6961 6.4022 9.5889-2.2761 3.1966 1.4958 4.4549 0.7245 8.514-2.4714 8.2682 3.6306 16.019 7.5337 22.727 0.39031 0.91238 0.32021 4.8193-0.40661 5.7338-0.38072 0.47907-0.76858-0.90122-1.7373-1.7281-2.6786-0.977-6.2119-2.0776-4.2618-4.9628-3.151-3.165-2.8793-6.0888-3.8319-8.0684 0.24283-5.4749-1.2743-9.2291-1.9425-14.467-1.2301-1.7425-2.0906-4.6837-1.248-6.1519-0.858-2.367-1.238-9.11-1.232-11.186zm17.641 37.519 0.094-0.37zm-0.125 0.375 0.09375-0.375zm-0.03125 0.1563v-0.0312zm0.34375 0.59375v-0.0312z" fill="#ab0635"/><path id="path6380" d="m19.488 31.954c0.566-9.608 9.711-14.128 16.195-19.549 10.129-6.5009 22.873-10.972 35.089-10.142 7.203-1.8863 18.035 1.0862 18.114 10.641-3.4177 5.6039-4.2007 9.7051-7.1701 16.189 0.66383 8.9495 8.3673 15.571 16.699 17.018 13.616 3.2903 26.758 2.1814 40.622 1.0675 1.9332-0.45233 10.717 1.0189 13.636 2.5474 2.4115 1.2629 0.67579 3.5767-3.6848 3.8649-9.684 6.1093-21.062 12.11-32.756 13.224-7.3634 1.2031-15.312 0.52523-22.805 0.23023-10.009 0.91693-17.511 6.0453-23.382 14.031-6.533 7.2237-6.7174 16.482-3.9721 24.941 3.3496 10.458 8.7781 21.16 7.6519 32.364 0.45877 6.7064-6.9268 13.667-0.08971 19.238 4.0911 3.048 1.8313 12.293-3.2535 6.0406-3.759-3.3125-14.584-8.4081-17.197-12.744-0.61164-1.0147 1.6648-2.1506 1.7152-3.2432 8.1737 0.35083 14.296-3.4531 14.951-12.061 1.119-9.3062-4.0917-17.232-7.0335-25.735-5.8244-7.1512-6.1756-16.44-5.9174-25.489-2.353-8.239-5.339-17.128-4.564-25.79 0.787-10.017 4.86-19.105 9.905-27.609 3.594-6.713 15.895-10.874 11.894-19.956-4.207-7.2274-13.7-1.9763-20.548-1.8508-7.374 3.1388-15.518 6.0998-22.58 9.9368-3.539 4.651-9.866 6.951-11.52 12.823z" fill="#fffaef"/><path id="path6436" d="m180.71 163.12c-1.5345 2.0211-1.9114-2.3874-1.82 2.4084-0.29965 4.467-7.1392 4.0366-7.6717 8.3777-2.8525-1.0177-4.4126 4.5556-6.875 1.0312 0.29828 3.7066-4.498 3.4346-3.9375 6.8438-2.8912-0.12309-2.615 5.1746-4.8438 1.3125 0.8037 3.4052-3.5706 6.4367-6.25 4.9688-4.0834 3.9528-10.779 1.625-15.906 2.0625-1.6404-0.82868-4.0036-0.38514-6.1562 0.34375-0.97131-1.9196-6.072-0.67613-7.4375-3.6875-3.7412 1.3409-8.0447-3.893-10.636 0.85087 1.6445 3.4298-0.82882 2.174-0.76986 7.3679 1.4179 1.4415 3.5399 2.6003 0.34375 3.3125-2.1891 1.1282-4.212 5.9587-0.1875 5.4062 3.4994-0.086 3.2317 3.3045 4.9375 5.625 1.8965 4.1348 7.4995 4.4492 10.281 8 2.9349 2.0605 6.8876 2.0464 10.188 2.4062 1.0013 2.4864 4.1028-0.20777 5.0312 2.625 2.099 0.85722 2.0192-0.63172 3.4822 1.4545 1.5181-0.15716 7.2661-0.84663 10.186-2.383 5.9381-1.6808 11.86-6.2629 15.864-11.531 4.7172-7.0582 6.4497-15.571 9.9942-23.312 0.8525-5.0516 4.2463-8.9726 5.1332-13.762 2.4404-4.0526 2.4844-8.2014 1.5592-12.591-0.96875 1.6875-2.3591-1.1783-3.3278 0.50923z" fill="#ab0635"/><path id="path6390" d="m122.86 67.68c-5.4936-1.0126-10.515-0.82763-15.531 0.67481-5.0731-3.9564-13.476-0.9058-19.591-0.39524-9.929 3.9333-19.16 9.4052-22.513 20.108-3.0686 7.818 1.6171 16.26 4.3773 23.927 1.5276 6.7743 3.0188 13.725 3.5722 20.686 0.5394 5.8188-1.298 11.698-2.109 17.389-0.43453 3.3371 0.58569 4.5424 2.2426 7.2081 2.4716 3.9763 5.6241 9.1875 7.2788 13.353 3.6721 5.1049 11.486 9.1138 15.348 13.142 4.792-2.8675 12.351 2.2005 17.911 3.9574 5.2056 1.6445 10.907 5.0509 15.607 4.2317 6.3434 0.64605 13.162 0.70527 19.502-0.6898 6.0834-1.3452 8.4367-7.6024 11.549-12.219 2.5824-6.1332 5.9251-11.661 7.3797-18.231 2.3642-5.0234 4.7298-9.8076 4.5878-15.598 2.1337-8.2602 3.1165-17.55 8.5601-24.504 3.8482-6.4167 7.4179-13.225 9.9628-20.08 0.67902-4.9627 0.88924-10.194 1.1207-15.311 0.15781-3.4889-0.0156-7.0931-1.3972-10.354-3.1566-4.3903-3.8818-9.7719-9.0153-11.524-2.7424 0.10346-4.4365-3.2332-6.7597-5.1079-2.2698-1.8316-5.5043-2.8886-8.312-1.813-6.8052-0.82719-13.352-5.9834-20.125-1.5739-7.2559 4.3225-15.048 7.719-22.3 12.089z" fill="#ab0635"/><path id="path5268" fill="#ab0635" d="m147.91 57.315c-0.457-0.534-1.557-0.421-1.349-1.618 0.503-0.215 0.987-0.452 1.618-0.54 0.422 0.979 0.229 1.469-0.269 2.158z"/><path id="path5270" fill="#ab0635" d="m145.48 56.237c0.832 0.07 0.183 1.996 0 2.696h-1.078c-0.855-1.187 0.481-2.103 1.078-2.696z"/><path id="path5584" fill="#fffaef" d="m200.79 88.882c0.92 1.273 1.006 2.349 0.808 4.586-0.479 5.465-2.16 10.864-3.235 16.188-1.643 8.126-3.683 15.475-5.938 23.201-0.717 2.455-1.831 4.854-2.43 7.285-0.66 2.695-0.875 5.578-1.348 8.362-0.443 2.612-1.311 5.203-1.889 7.824-4.073 1.5382-6.0494 6.6589-9.713 12.144-3.666 2.02-7.1777 6.3222-10.437 7.8552-3.021-0.40191-5.2061-4.1749 0.93147-16.761 2.8684-2.317 4.986-10.575 5.3982-13.848 0.58431-4.6388 1.3404-9.4906 2.7801-14.21 0.62932-2.063 1.5442-4.3842 2.3608-6.2935 2.5555-5.9753 6.6207-10.049 7.3103-12.812 0.767-2.0678 1.1438-8.4887 3.6838-10.332 3.6891-2.6771 1.7794-22.007 2.3526-25.992 0.0457-0.31367-2.3296-4.9166-5.8174-9.159-1.2294-1.4953-6.2259-6.3834-12.303-8.9247-3.9057-1.6332-13.218-1.9248-16.818-2.8138-4.9346-1.2187-3.583-2.7447-3.4871-2.9401 0.75878-1.5451 3.8592-1.19 7.1202-0.87891 4.3096 0.41117 12.59 2.0448 18.472 4.5328 12.206 5.1629 22.167 13.726 21.559 20.725-0.34398 3.9604 0.24346 13.627 0.63818 12.262z"/><path id="path6164" fill="#fffaef" d="m157.08 152.28h0.812c0.913 2.192 0.642 5.344-0.54 7.553-0.312 0.584-1.064 1.006-1.35 1.62-0.33 0.712-0.187 1.729-0.539 2.429-0.162 0.318-0.854 0.448-1.08 0.808-0.225 0.358-0.096 1.009-0.271 1.352-0.38 0.744-1.271 1.082-1.617 1.618-0.377 0.584-0.227 1.229-0.541 1.618-1.696 2.109-4.681 2.855-5.664 5.127-0.668 0.259-1.156 0.32-1.889 0.81-0.957 0.638-0.393-0.055-1.08 0-0.224 0.017-0.285 0.444-0.539 0.538-0.687 0.26-1.629-0.118-1.89 0.271-0.726-2.258 2.601-2.793 2.699-5.127 1.87-1.045 3.575-2.285 5.126-3.508 0.609-0.479 1.217-1.23 1.889-1.888 1.76-1.722 4.271-4.728 4.855-8.096 0.369-2.1 0.286-3.513 1.619-5.125z"/><path id="path6384" d="m75.844 0c-10.733 0.096945-22.094 1.0071-31.384 6.0061-19.351 8.5299-30.086 24.222-38.048 41.689-2.7745 11.061-6.6788 21.82-6.3814 33.384 0.005659 10.293 4.5765 20.111 7.6093 29.591 4.2698 9.475 7.9221 19.047 14.016 27.582 5.0837 7.3208 8.8773 15.419 14.031 22.688 4.6368 7.2735 11.81 16.264 18.348 23.256 9.9648 7.705 21.332 13.747 32.37 19.9 5.6714 4.6686 12.898 7.31 18.344 11.594 5.2778 1.3115 12.199 5.4709 17.92 7.0535 7.5667 2.1371 15.097 2.7812 23.362 1.8528 8.9691-3.4558 18.33-5.6368 23.853-14.168 4.8963-10.32 8.8231-20.849 12.303-31.707 3.8894-6.745 4.3845-16.006 6.6914-23.792 0.98616-10.667 5.4277-20.289 7.7867-30.604 2.9952-15.257 8.951-30.654 5.486-46.382-2.1441-8.9411-9.1153-15.121-16.71-19.604-8.8718-6.9194-19.833-6.7293-30.114-8.1627-9.6914-5.3205-19.848-3.5352-30.319-3.257-10.04-0.02-20.48-0.207-29.698-4.163-13.644-6.46-12.631-14.321-10.001-21.834 0.694-1.984 3.115-5.271 3.783-7.176 1.167-3.327 0.103-5.2059-2.512-8.4029-2.339-3.357-6.846-4.5603-10.738-5.3371zm11.862 10.918c-2.6104 5.7434-4.0457 9.6975-5.9264 15.878-1.3068 4.3672-1.6901 8.6566 4.0044 12.647 6.1758 7.3586 17.192 7.3785 26.273 8.8106 6.8105 0.53476 13.282 1.3078 19.662 0.15291 6.625-0.89139 16.413 0.27628 20.25 3.25-7.7757 2.5029-13.985 8.0934-21.851 11.214-8.2546 3.9663-16.157 4.6605-24.555 4.1611-10.164-2.114-21.558-0.733-29.862 6.463-9.437 6.878-14.428 18.507-10.886 29.695 3.5001 8.5554 6.3414 17.727 7.955 26.946 2.3434 12.114-8.0764 20.734 1.7592 29.825 4.2876 11.374-9.0556-1.5384-13.471-3.7808-7.6896-2.816-7.513-9.8877 0.05072-7.457 23.679-15.52-3.246-43.37-3.657-55.032 0.582-12.043-6.034-23.129-3.833-35.33 0.014-9.144 5.673-16.949 8.323-24.553 4.353-8.24 16.736-13.296 11.647-24.406-3.373-2.4744-7.493-2.4208-11.712-1.8853-8.261 0.0152-15.048 3.4553-21.933 6.3023-5.97 2.474-11.804 5.183-15.876 10.784-3.135 3.637-6.767 11.138-3.221 1.962 3.225-6.245 10.974-9.6 16.293-14.595 8.412-4.8158 17.632-9.0019 27.197-9.7401 13.38-0.1438 22.415 0.9471 23.372 8.6911zm-24.519-2.168c6.3246-0.47517 13.307 2.4799 8.6562 10.25-7.2024 4.8547-12.204 14.51-14.594 20.5-7.435 13.216-6.1367 29.023-2.2516 43.139 1.0768 8.8982 0.21542 18.32 6.6751 25.701 4.0309 7.7703 7.5524 17.14 7.4089 26.148 0.3352 10.836-13.568 17.038-18.639 7.6197-8.929-1.23-15.292-8.43-20.338-15.91-5.686-7.69-9.97-16.31-12.945-25.39-3.921-15.384-7.2819-31.531-4.644-47.373 1.256-9.725 6.026-17.797 11.296-26.062 12.449-15.486 26.657-13.227 39.375-18.625zm90.406 42.906c9.1953 3.179 19.919 0.20709 28.312 7.2812 8.5723 3.6069 15.893 9.9782 18.327 19.192 0.0393 10.028-2.8117 20.217-5.2004 29.909-3.955 8.0251-8.3019 17.696-11.783 25.087-6.6864 7.3651-4.9636 18.553-9.57 26.851-2.404 2.7499-8.3567 15.147-9.2459 11.443 3.2979-9.3905 9.1625-18.357 9.2649-28.844 2.4742-8.2224 3.3697-17.932 9.551-23.2 3.4631-9.5352 9.645-18.483 9.449-29.246 2.4774-11.613-3.537-24.395-14.166-29.836-6.1067-6.9236-16.184-3.7772-24.213-7.4783-1.5812-0.40849-1.7525-0.49215-0.72598-1.1584zm-1.875 2.4375c8.7631 3.8837 19.34 0.93713 25.79 7.8625 7.1152 2.5595 9.1484 7.5994 12.595 14.358 2.4748 9.4048 0.16392 20.346-3.603 29.561-1.8654 9.7852-9.9808 16.897-12 26.723-2.5885 9.1364-2.1238 19.157-7.6879 26.965-1.6056 8.1292-6.4664 14.503-9.9255 21.676-3.7701 4.6553-5.5551 8.229-12.762 9.0737-10.029 0.33367-20.34-0.51468-29.278-3.7024-7.103-3.2964-14.761-4.5599-21.769-7.8208-7.125-4.65-11.664-10.18-16.066-17.26-9.08-8.46-0.292-19.34-2.482-30.03-0.598-9.61-4.212-18.86-7.782-27.73-2.222-8.733-1.573-19.311 6.438-24.864 6.441-9.288 18.705-10.721 29.123-10.531 6.9166 1.6049 15.049 1.7335 23.418-1.2003 10.219-1.7374 16.743-10.313 25.988-13.081zm-142.22 7.281c-2.331 12.63 3.6083 24.804 5.125 37.219 3.0109 10.208 6.4021 19.796 13.565 27.864 1.2465 1.1568 2.265 2.8795 3.1123 4.144 4.4429 6.6308 5.1052 14.068 8.3274 21.563-0.74241 10.567-9.0505-1.7984-10.884-7.0777-6.231-8.29-10.926-17.53-15.477-26.73-2.116-5.31-3.8966-11-5.4969-16.58-1.8522-10.306-4.4101-20.716-1.5092-31.149 0.7231-3.2 1.9631-6.245 3.2381-9.256zm32.75 3.375c-3.9178 4.0649 0.21368 13.958-1.078 17.824 6.3514 4.9554-0.67681 18.649 7.3051 24.689-0.1929 8.0818 13.118 14.01 8.6769 2.092-6.4048-7.7298-8.2132-17.225-7.9905-26.97 0.52782-6.3992-8.1821-8.3444-4.1635-17.041-3.4741-1.4086-0.14886 1.0474-2.75-0.59375zm0.1875 5.5312c2.3068 8.779 7.2961 14.905 5.656 24.736 0.88212 5.7172 11.859 17.9 6.5074 18.585-8.354-8.79-8.522-20.735-10.46-31.924 0.209-3.967-2.973-7.461-1.704-11.395zm158.34 18.594c2.121 10.745-3.4492 21.807-5.1455 32.525-3.0972 10.961-6.5731 21.729-8.4065 32.98-7.6241 5.707-10.167 17.328-20.698 21.12 6.432-10.606 12.889-21.569 14.275-34.563 5.4328-8.1911 8.6545-17.773 13.787-26.437 3.5626-8.1713 4.7672-16.931 6.1875-25.625zm-158.9 53.155c7.3981 6.9517 15.218 14.338 23.736 19.268 5.6044 3.8159 9.9177 8.4607 16.195 11.15 6.5547 5.7359 12.565 12.355 19.847 17.406 4.7768 3.7047 13.324 7.8001 3.3469 11.269 8.1025 3.8992 10.592 12.564 18.828 15.983 5.787 3.6493 6.2062 6.558-1.0394 3.7543-7.6652-3.1084-17.612-7.0047-23.953-11.01-8.615-5-17.195-10.95-26.377-15.66-6.446-4.92-14.079-7.75-19.471-13.77-4.509-6.46-15.531-13.24-11.394-22.48 2.1715-4.7836-6.5514-14.254 0.2812-15.906zm140.31 19.688c4.1543 5.213-0.43939 13.36-2.9592 18.901-3.8636 6.8325-3.7688 14.99-7.757 21.759-2.1928 4.8133-3.7988 9.9884-8.8259 12.649-6.2872 3.1463-13.378 9.1743-20.622 6.7402-5.3577-3.289-11.853-3.9291-17.571-5.9219-5.1651-3.5357-10.924-8.834-12.599-13.41-8.898-0.59275 7.6264-5.808-2.2604-9.1537 2.0384-8.3569 12.012-2.4104 17.464-1.6645 7.3756 0.36966 15.458 2.0322 22.289-0.69459 4.9498-0.38451 8.7634-4.1491 11.858-8.1266 2.0649-4.9645 7.3496-4.5994 10.983-7.9223 4.4344-3.6378 8.5583-7.1643 9.9997-13.154zm-80.688 22.125c5.4653 2.5928-3.3691 6.8333 0 0zm5.125 1.8125c6.0383 3.1592-2.9685 8.7361 0.369 2.272-2.3844-1.1006-2.4022 5.3958-2.5252-1.022l1.1106-0.93564z"/><path id="path6424" d="m161.67 123.95c0.857 0.194 1.267-0.693 2.697-0.538 0.336 2.501 2.217 4.918 2.698 7.823 1.067 6.431-0.853 12.864-3.509 16.997 0.848 0.322 1.199 1.139 1.081 2.428-0.321-1.445-1.574 1.068-1.621-0.27-0.726 0.662-1.036 0.34-1.888 1.078-0.116-1.017-1.123-1.142-0.541-2.158 1.207-0.619 1.597 0.265 2.699-1.078-2.766-2.27 0.834-5.455 1.08-8.364 0.258-3.082-1.672-6.156-1.89-9.442-0.134-1.994 0.953-3.541-0.271-5.396-0.558 0.522-0.516 1.643-0.811 2.429-1.624-0.104-2.211 2.459-3.775 3.236-0.451-0.031-0.42-1.877-0.811-1.078-0.602-0.533 0.891-1.254 0.811-2.158 0.674 0.344 0.844-0.139 1.078 0.27 0.018-1.739 2.735-2.873 2.969-2.697 0.812-0.181-0.253-0.579 0.004-1.082zm3.778 11.603c0.309-1.072-0.078-5.758-1.078-6.205-0.065 1.546 0.453 4.482 1.078 6.205z"/><path id="path6426" fill="#fffaef" d="m164.37 129.35c1 0.447 1.387 5.133 1.078 6.205-0.625-1.723-1.143-4.659-1.078-6.205z"/><path id="path6452" d="m158.97 150.13c1.603 2.174 1.128 5.233 0.81 8.633-1.152 1.366-2.062 2.974-2.428 5.127-2.161 1.578-2.791 4.698-4.587 6.745-0.485 0.553-1.763 0.649-1.89 1.889-2.125 0.822-3.174 3.021-4.855 4.047-0.538 0.326-1.622-0.295-1.618 0.81-4.438 0.353-6.081 1.423-11.331 0.81-0.797-0.935-1.891-1.018-3.238-0.81 0.148-0.553-0.515-0.646-0.541-0.271-0.744-1.026 0.676-2.194 1.082-2.969 0.08-1.177-0.801-1.197-0.271-2.158 1.212-0.229 1.486 0.237 2.698 0.541-0.479 0.426-0.386 2.23-1.351 1.349-0.19 1.719 1.393 1.666 2.158 2.428 1.094-1.036 2.389-0.289 3.508 0.54 1.297-0.143 1.445-1.434 1.618-2.698 1.065 0.345 0.654-0.786 1.351-0.81 1.576-2.251 3.899-4.402 5.125-5.665 0.688-0.709 2.697-1.431 3.238-2.97 1.495-0.123 1.924-1.313 2.428-2.428 0.638-0.084 0.502-0.936 1.35-0.809 0.57-2.037 1.93-3.286 1.618-6.207-0.425-0.984-0.964 0.021-1.618-0.537-0.432-1.25-0.031-2.07 1.08-2.429 0.459 0.259 0.591 0.848 0.809 1.348 1.535-1.612 1.676-4.136 4.855-3.506zm-3.507 7.282c-0.586 3.367-3.098 6.374-4.856 8.096-0.672 0.656-1.278 1.407-1.889 1.889-1.55 1.222-3.257 2.461-5.126 3.506-0.1 2.334-3.424 2.869-2.699 5.127 0.26-0.389 1.203-0.012 1.889-0.271 0.256-0.094 0.316-0.522 0.541-0.538 0.688-0.055 0.122 0.637 1.079 0 0.731-0.488 1.222-0.551 1.89-0.81 0.982-2.271 3.967-3.017 5.664-5.127 0.313-0.39 0.162-1.034 0.539-1.618 0.349-0.536 1.238-0.874 1.619-1.618 0.176-0.343 0.047-0.992 0.271-1.351 0.227-0.359 0.918-0.489 1.079-0.809 0.354-0.699 0.209-1.717 0.541-2.429 0.283-0.614 1.035-1.036 1.349-1.62 1.181-2.209 1.453-5.359 0.54-7.553h-0.811c-1.336 1.614-1.253 3.027-1.62 5.126z"/>
<metadata><rdf:RDF><cc:Work><dc:format>image/svg+xml</dc:format><dc:type rdf:resource="http://purl.org/dc/dcmitype/StillImage"/><cc:license rdf:resource="http://creativecommons.org/licenses/publicdomain/"/><dc:publisher><cc:Agent rdf:about="http://openclipart.org/"><dc:title>Openclipart</dc:title></cc:Agent></dc:publisher><dc:title>Steak</dc:title><dc:date>2013-03-11T07:18:23</dc:date><dc:description>simplified version of the steak drawn by Susan Gaber and uploaded by johnny_automatic</dc:description><dc:source>http://openclipart.org/detail/175668/steak-by-dkdlv-175668</dc:source><dc:creator><cc:Agent><dc:title>dkdlv</dc:title></cc:Agent></dc:creator><dc:subject><rdf:Bag><rdf:li>Steak steack viande meat carne bistec remix beef</rdf:li><rdf:li>clip art</rdf:li><rdf:li>clipart</rdf:li></rdf:Bag></dc:subject></cc:Work><cc:License rdf:about="http://creativecommons.org/licenses/publicdomain/"><cc:permits rdf:resource="http://creativecommons.org/ns#Reproduction"/><cc:permits rdf:resource="http://creativecommons.org/ns#Distribution"/><cc:permits rdf:resource="http://creativecommons.org/ns#DerivativeWorks"/></cc:License></rdf:RDF></metadata></svg>
